<?xml version="1.0" encoding="utf-8"?>
<!-- Generator: Adobe Illustrator 27.3.0, SVG Export Plug-In . SVG Version: 6.00 Build 0)  -->
<svg version="1.1" id="Ebene_1" xmlns="http://www.w3.org/2000/svg" xmlns:xlink="http://www.w3.org/1999/xlink" x="0px" y="0px"
	 viewBox="0 0 403 251" style="enable-background:new 0 0 403 251;" xml:space="preserve">
<style type="text/css">
	.st0{opacity:0.25;}
	.st1{clip-path:url(#SVGID_00000106837553609191619190000008245227242743767709_);}
	.st2{clip-path:url(#SVGID_00000107549560958317374570000013182442781359813279_);}
	.st3{clip-path:url(#SVGID_00000016056550310711266730000000156860117297748105_);fill:#CFD1D2;}
	.st4{clip-path:url(#SVGID_00000016056550310711266730000000156860117297748105_);fill:#FFFFFF;}
	.st5{clip-path:url(#SVGID_00000016056550310711266730000000156860117297748105_);fill:#9C9E9F;}
	.st6{clip-path:url(#SVGID_00000016056550310711266730000000156860117297748105_);}
	.st7{clip-path:url(#SVGID_00000051352670794880158460000010916028570423760020_);}
	.st8{opacity:0.72;clip-path:url(#SVGID_00000016056550310711266730000000156860117297748105_);}
	.st9{clip-path:url(#SVGID_00000126323517222185338930000013460752937300144773_);}
	
		.st10{clip-path:url(#SVGID_00000116201411845420100430000003694049145803114883_);fill:url(#SVGID_00000065068157104156938030000003856159487021349535_);}
	.st11{clip-path:url(#SVGID_00000052069940583381856410000005639585405661403562_);}
	.st12{clip-path:url(#SVGID_00000144333778578240755290000008824666500494679742_);}
	.st13{clip-path:url(#SVGID_00000042738152759061355510000005219660200822397882_);fill:#CFD1D2;}
	.st14{clip-path:url(#SVGID_00000042738152759061355510000005219660200822397882_);fill:#FFFFFF;}
	.st15{clip-path:url(#SVGID_00000042738152759061355510000005219660200822397882_);fill:#9C9E9F;}
	.st16{clip-path:url(#SVGID_00000042738152759061355510000005219660200822397882_);}
	.st17{clip-path:url(#SVGID_00000163073712509811769670000017041470860145187998_);}
	.st18{opacity:0.72;clip-path:url(#SVGID_00000042738152759061355510000005219660200822397882_);}
	.st19{clip-path:url(#SVGID_00000179633045952423432440000013335725919582375082_);}
	
		.st20{clip-path:url(#SVGID_00000013164543868795327070000011347649126998914961_);fill:url(#SVGID_00000078010076772047041770000006980255115202515332_);}
	.st21{fill-rule:evenodd;clip-rule:evenodd;fill:#F3F3F3;}
	.st22{fill:none;stroke:#C4C4C4;stroke-width:1.6;stroke-linecap:round;}
	.st23{fill-rule:evenodd;clip-rule:evenodd;fill:#FFFFFF;}
	.st24{fill-rule:evenodd;clip-rule:evenodd;fill:#E3E3E3;}
	.st25{clip-path:url(#SVGID_00000055699712623760656560000004228888838370288526_);}
	.st26{clip-path:url(#SVGID_00000176722012695663217280000016704666787751708084_);}
	.st27{clip-path:url(#SVGID_00000181065647473068816090000017415715222716116146_);fill:#CFD1D2;}
	.st28{clip-path:url(#SVGID_00000181065647473068816090000017415715222716116146_);fill:#FFFFFF;}
	.st29{clip-path:url(#SVGID_00000181065647473068816090000017415715222716116146_);fill:#9C9E9F;}
	.st30{clip-path:url(#SVGID_00000181065647473068816090000017415715222716116146_);}
	.st31{clip-path:url(#SVGID_00000182486651129049314970000000746959129404975024_);}
	.st32{opacity:0.72;clip-path:url(#SVGID_00000181065647473068816090000017415715222716116146_);}
	.st33{clip-path:url(#SVGID_00000183209306343180706790000012499517617903888318_);}
	
		.st34{clip-path:url(#SVGID_00000028304151145768273430000007786728334489332901_);fill:url(#SVGID_00000072265679798685720580000006559962920181855400_);}
	.st35{clip-path:url(#SVGID_00000119804409126452733200000013509395022834873527_);}
	.st36{clip-path:url(#SVGID_00000069375030552233016410000008742538696187325612_);}
	.st37{clip-path:url(#SVGID_00000157280560283707600580000014743938511928920750_);fill:#CFD1D2;}
	.st38{clip-path:url(#SVGID_00000157280560283707600580000014743938511928920750_);fill:#FFFFFF;}
	.st39{clip-path:url(#SVGID_00000157280560283707600580000014743938511928920750_);fill:#9C9E9F;}
	.st40{clip-path:url(#SVGID_00000157280560283707600580000014743938511928920750_);}
	.st41{clip-path:url(#SVGID_00000145776611363184822610000009861286255494670466_);}
	.st42{opacity:0.72;clip-path:url(#SVGID_00000157280560283707600580000014743938511928920750_);}
	.st43{clip-path:url(#SVGID_00000163066227396297243980000017260327744127598743_);}
	
		.st44{clip-path:url(#SVGID_00000172427902487689110450000005583422616269511833_);fill:url(#SVGID_00000130614943619373214630000009245143002113267856_);}
</style>
<g class="st0">
	<g>
		<defs>
			<rect id="SVGID_1_" x="42.2" y="107.1" width="109.9" height="77.7"/>
		</defs>
		<clipPath id="SVGID_00000121977555655392200860000013183771398611454858_">
			<use xlink:href="#SVGID_1_"  style="overflow:visible;"/>
		</clipPath>
		<g style="clip-path:url(#SVGID_00000121977555655392200860000013183771398611454858_);">
			<defs>
				<rect id="SVGID_00000044177462714011767570000008745492593533998763_" x="42.2" y="107.1" width="109.9" height="77.7"/>
			</defs>
			<clipPath id="SVGID_00000106135211438012621770000010315589462929637021_">
				<use xlink:href="#SVGID_00000044177462714011767570000008745492593533998763_"  style="overflow:visible;"/>
			</clipPath>
			<g style="clip-path:url(#SVGID_00000106135211438012621770000010315589462929637021_);">
				<defs>
					<rect id="SVGID_00000115511681517262722700000014610307455119485332_" x="42.2" y="107.1" width="109.9" height="77.7"/>
				</defs>
				<clipPath id="SVGID_00000134928070871540878530000006305228902898653603_">
					<use xlink:href="#SVGID_00000115511681517262722700000014610307455119485332_"  style="overflow:visible;"/>
				</clipPath>
				<path style="clip-path:url(#SVGID_00000134928070871540878530000006305228902898653603_);fill:#CFD1D2;" d="M114.4,143.2
					c0,10.3-8.3,18.6-18.6,18.6c-10.3,0-18.6-8.3-18.6-18.6c0-10.3,8.3-18.6,18.6-18.6C106.1,124.7,114.4,133,114.4,143.2"/>
				<path style="clip-path:url(#SVGID_00000134928070871540878530000006305228902898653603_);fill:#FFFFFF;" d="M112.6,143.2
					c0,9.2-7.5,16.7-16.7,16.7c-9.2,0-16.7-7.5-16.7-16.7c0-9.2,7.5-16.7,16.7-16.7C105.1,126.5,112.6,134,112.6,143.2"/>
				<path style="clip-path:url(#SVGID_00000134928070871540878530000006305228902898653603_);fill:#9C9E9F;" d="M79.6,143.2
					c0,9,7.3,16.3,16.3,16.3c9,0,16.3-7.3,16.3-16.3c0-9-7.3-16.3-16.3-16.3C86.8,127,79.6,134.2,79.6,143.2"/>
				<g style="clip-path:url(#SVGID_00000134928070871540878530000006305228902898653603_);">
					<g>
						<defs>
							<rect id="SVGID_00000067938055760559686880000017823402750072466845_" x="77.4" y="128.7" width="36.4" height="25.7"/>
						</defs>
						<clipPath id="SVGID_00000052815976024726595460000000608985108967327928_">
							<use xlink:href="#SVGID_00000067938055760559686880000017823402750072466845_"  style="overflow:visible;"/>
						</clipPath>
						<g style="clip-path:url(#SVGID_00000052815976024726595460000000608985108967327928_);">
							<defs>
								<rect id="SVGID_00000177458858146715474960000008919198465001596573_" x="77.4" y="128.7" width="36.4" height="25.7"/>
							</defs>
							<clipPath id="SVGID_00000076585552497250310080000016816954230364815493_">
								<use xlink:href="#SVGID_00000177458858146715474960000008919198465001596573_"  style="overflow:visible;"/>
							</clipPath>
							<g style="clip-path:url(#SVGID_00000076585552497250310080000016816954230364815493_);">
								
									<image style="overflow:visible;" width="1160" height="819" xlink:href="58A6C0A46745D769.png"  transform="matrix(3.133865e-02 0 0 3.133866e-02 77.4239 128.6746)">
								</image>
							</g>
						</g>
					</g>
				</g>
				<polygon style="clip-path:url(#SVGID_00000134928070871540878530000006305228902898653603_);fill:#FFFFFF;" points="84.1,139.6 
					84.6,147 84.7,147 85.3,139.6 87.6,139.6 88.1,147.1 88.2,147.1 88.8,139.6 90.8,139.6 89.4,149.2 87,149.2 86.4,142.2 
					86.4,142.2 85.7,149.2 83.2,149.2 81.9,139.6 				"/>
				<path style="clip-path:url(#SVGID_00000134928070871540878530000006305228902898653603_);fill:#FFFFFF;" d="M94.4,143.3v-1.7
					c0-0.2-0.1-0.5-0.4-0.5c-0.3,0-0.4,0.3-0.4,0.5v1.7H94.4z M91.5,141.7c0-1.4,1.1-2.2,2.5-2.2c1.3,0,2.5,0.7,2.5,2.2v3.1h-2.9
					v2.5c0,0.2,0.1,0.5,0.4,0.5c0.3,0,0.4-0.3,0.4-0.5v-1.8h2.1v1.8c0,1.4-1.2,2.2-2.5,2.2c-1.4,0-2.5-0.7-2.5-2.2V141.7z"/>
				<polygon style="clip-path:url(#SVGID_00000134928070871540878530000006305228902898653603_);fill:#FFFFFF;" points="97.6,149.2 
					97.6,133.1 99.8,133.1 99.8,143.9 99.8,143.9 100.7,139.6 102.9,139.6 101.8,143.8 102.8,149.2 100.7,149.2 99.8,144.2 
					99.8,144.2 99.8,149.2 				"/>
				<path style="clip-path:url(#SVGID_00000134928070871540878530000006305228902898653603_);fill:#FFFFFF;" d="M105.8,147.3
					c0,0.2,0.1,0.5,0.4,0.5c0.3,0,0.4-0.3,0.4-0.5v-2.8l-0.4,0.3c-0.3,0.3-0.4,0.3-0.4,0.8V147.3z M103.6,141.7
					c0-1.4,1.1-2.2,2.5-2.2c1.3,0,2.5,0.7,2.5,2.2v5.6c0,0.7,0.1,1.3,0.2,1.9h-2.2l-0.1-1h0c-0.3,0.8-0.8,1.1-1.4,1.1
					c-1.1,0-1.4-0.6-1.4-1.7v-2.1c0-2.4,2.9-1.5,2.9-3.6v-0.4c0-0.2-0.1-0.5-0.4-0.5c-0.3,0-0.4,0.3-0.4,0.5v1.4h-2.1V141.7z"/>
				<g style="opacity:0.72;clip-path:url(#SVGID_00000134928070871540878530000006305228902898653603_);">
					<g>
						<defs>
							<rect id="SVGID_00000052078821197381425090000017585894205811434906_" x="77.3" y="124.7" width="37.2" height="37.2"/>
						</defs>
						<clipPath id="SVGID_00000067229809315125095240000011653565823268140430_">
							<use xlink:href="#SVGID_00000052078821197381425090000017585894205811434906_"  style="overflow:visible;"/>
						</clipPath>
						<g style="clip-path:url(#SVGID_00000067229809315125095240000011653565823268140430_);">
							<defs>
								<path id="SVGID_00000134943035550461448110000017539541967194641306_" d="M114.4,143.2c0,10.3-8.3,18.6-18.6,18.6
									c-10.3,0-18.6-8.3-18.6-18.6c0-10.3,8.3-18.6,18.6-18.6C106.1,124.7,114.4,133,114.4,143.2"/>
							</defs>
							<clipPath id="SVGID_00000174576712924542326140000003281360797975835266_">
								<use xlink:href="#SVGID_00000134943035550461448110000017539541967194641306_"  style="overflow:visible;"/>
							</clipPath>
							
								<radialGradient id="SVGID_00000128486602882021641550000002216830515031132082_" cx="-1.6818" cy="249.5822" r="0.1306" gradientTransform="matrix(181.3536 0 0 -181.3536 399.3003 45398.9531)" gradientUnits="userSpaceOnUse">
								<stop  offset="0" style="stop-color:#FFFFFF"/>
								<stop  offset="0.4725" style="stop-color:#FFFFFF"/>
								<stop  offset="1" style="stop-color:#1A171B"/>
							</radialGradient>
							
								<rect x="77.3" y="124.7" style="clip-path:url(#SVGID_00000174576712924542326140000003281360797975835266_);fill:url(#SVGID_00000128486602882021641550000002216830515031132082_);" width="37.2" height="37.2"/>
						</g>
					</g>
				</g>
			</g>
		</g>
	</g>
</g>
<g class="st0">
	<g>
		<defs>
			<rect id="SVGID_00000045582861871165275690000003289950360895784089_" x="210.1" y="125.5" width="200.9" height="142.1"/>
		</defs>
		<clipPath id="SVGID_00000045618937190363913900000006491509041839812251_">
			<use xlink:href="#SVGID_00000045582861871165275690000003289950360895784089_"  style="overflow:visible;"/>
		</clipPath>
		<g style="clip-path:url(#SVGID_00000045618937190363913900000006491509041839812251_);">
			<defs>
				<rect id="SVGID_00000136405897374351151530000003883068121996435336_" x="210.1" y="125.5" width="200.9" height="142.1"/>
			</defs>
			<clipPath id="SVGID_00000101801576692761621890000013588316126606389405_">
				<use xlink:href="#SVGID_00000136405897374351151530000003883068121996435336_"  style="overflow:visible;"/>
			</clipPath>
			<g style="clip-path:url(#SVGID_00000101801576692761621890000013588316126606389405_);">
				<defs>
					<rect id="SVGID_00000153700343563463409760000009488260112475107205_" x="210.1" y="125.5" width="200.9" height="142.1"/>
				</defs>
				<clipPath id="SVGID_00000075164774104917882160000004084017179614541480_">
					<use xlink:href="#SVGID_00000153700343563463409760000009488260112475107205_"  style="overflow:visible;"/>
				</clipPath>
				<path style="clip-path:url(#SVGID_00000075164774104917882160000004084017179614541480_);fill:#CFD1D2;" d="M342.2,191.5
					c0,18.8-15.2,34-34,34c-18.8,0-34-15.2-34-34c0-18.8,15.2-34,34-34C327,157.5,342.2,172.7,342.2,191.5"/>
				<path style="clip-path:url(#SVGID_00000075164774104917882160000004084017179614541480_);fill:#FFFFFF;" d="M338.8,191.5
					c0,16.9-13.7,30.6-30.6,30.6c-16.9,0-30.6-13.7-30.6-30.6s13.7-30.6,30.6-30.6C325.1,160.9,338.8,174.6,338.8,191.5"/>
				<path style="clip-path:url(#SVGID_00000075164774104917882160000004084017179614541480_);fill:#9C9E9F;" d="M278.5,191.5
					c0,16.4,13.3,29.8,29.8,29.8c16.4,0,29.8-13.3,29.8-29.8c0-16.4-13.3-29.7-29.8-29.7C291.8,161.7,278.5,175.1,278.5,191.5"/>
				<g style="clip-path:url(#SVGID_00000075164774104917882160000004084017179614541480_);">
					<g>
						<defs>
							<rect id="SVGID_00000141448973261564049890000016487679508611707288_" x="274.6" y="164.9" width="66.4" height="46.9"/>
						</defs>
						<clipPath id="SVGID_00000087390819598586197350000013548145185051232939_">
							<use xlink:href="#SVGID_00000141448973261564049890000016487679508611707288_"  style="overflow:visible;"/>
						</clipPath>
						<g style="clip-path:url(#SVGID_00000087390819598586197350000013548145185051232939_);">
							<defs>
								<rect id="SVGID_00000150076121677076809740000014022372358914655133_" x="274.6" y="164.9" width="66.4" height="46.9"/>
							</defs>
							<clipPath id="SVGID_00000159452180216830123990000002664389836806540983_">
								<use xlink:href="#SVGID_00000150076121677076809740000014022372358914655133_"  style="overflow:visible;"/>
							</clipPath>
							<g transform="matrix(1 0 0 1 0 0)" style="clip-path:url(#SVGID_00000159452180216830123990000002664389836806540983_);">
								
									<image style="overflow:visible;" width="1160" height="819" xlink:href="58A6C0A46745D76B.png"  transform="matrix(5.728108e-02 0 0 5.728108e-02 274.5912 164.87)">
								</image>
							</g>
						</g>
					</g>
				</g>
				<polygon style="clip-path:url(#SVGID_00000075164774104917882160000004084017179614541480_);fill:#FFFFFF;" points="
					286.7,184.9 287.7,198.5 287.8,198.5 289.1,184.9 293.1,184.9 294.2,198.5 294.3,198.5 295.4,184.9 299.1,184.9 296.5,202.4 
					292,202.4 291.1,189.7 291,189.7 289.6,202.4 285.2,202.4 282.7,184.9 				"/>
				<path style="clip-path:url(#SVGID_00000075164774104917882160000004084017179614541480_);fill:#FFFFFF;" d="M305.6,191.6v-3.2
					c0-0.4-0.2-0.9-0.7-0.9c-0.5,0-0.7,0.5-0.7,0.9v3.2H305.6z M300.3,188.6c0-2.6,2.1-4,4.6-4c2.5,0,4.6,1.3,4.6,4v5.6h-5.3v4.6
					c0,0.4,0.2,0.9,0.7,0.9c0.5,0,0.7-0.5,0.7-0.9v-3.4h3.9v3.2c0,2.6-2.1,4-4.6,4c-2.5,0-4.6-1.3-4.6-4V188.6z"/>
				<polygon style="clip-path:url(#SVGID_00000075164774104917882160000004084017179614541480_);fill:#FFFFFF;" points="
					311.5,202.4 311.5,173 315.4,173 315.4,192.8 315.5,192.8 317.1,184.9 321.1,184.9 319.2,192.4 321.1,202.4 317.1,202.4 
					315.5,193.2 315.4,193.2 315.4,202.4 				"/>
				<path style="clip-path:url(#SVGID_00000075164774104917882160000004084017179614541480_);fill:#FFFFFF;" d="M326.4,198.9
					c0,0.4,0.2,0.9,0.7,0.9c0.5,0,0.7-0.5,0.7-0.9v-5.1l-0.7,0.5c-0.6,0.5-0.7,0.6-0.7,1.4V198.9z M322.5,188.6c0-2.6,2.1-4,4.6-4
					c2.5,0,4.6,1.3,4.6,4v10.3c0,1.2,0.2,2.4,0.3,3.6h-4l-0.2-1.8h-0.1c-0.5,1.4-1.5,2-2.6,2c-2,0-2.6-1.2-2.6-3.2v-3.8
					c0-4.4,5.3-2.7,5.3-6.5v-0.7c0-0.4-0.2-0.9-0.7-0.9c-0.5,0-0.7,0.5-0.7,0.9v2.5h-3.9V188.6z"/>
				<g style="opacity:0.72;clip-path:url(#SVGID_00000075164774104917882160000004084017179614541480_);">
					<g>
						<defs>
							<rect id="SVGID_00000054231211037165183380000017198114108256161947_" x="274.3" y="157.5" width="67.9" height="67.9"/>
						</defs>
						<clipPath id="SVGID_00000078753637375121920510000007085738305371453625_">
							<use xlink:href="#SVGID_00000054231211037165183380000017198114108256161947_"  style="overflow:visible;"/>
						</clipPath>
						<g style="clip-path:url(#SVGID_00000078753637375121920510000007085738305371453625_);">
							<defs>
								<path id="SVGID_00000092446572057271454170000005906371211162085023_" d="M342.2,191.5c0,18.8-15.2,34-34,34
									c-18.8,0-34-15.2-34-34c0-18.8,15.2-34,34-34C327,157.5,342.2,172.7,342.2,191.5"/>
							</defs>
							<clipPath id="SVGID_00000131334378574827136580000003297860503118460560_">
								<use xlink:href="#SVGID_00000092446572057271454170000005906371211162085023_"  style="overflow:visible;"/>
							</clipPath>
							
								<radialGradient id="SVGID_00000042714293153034691930000016455496398434403491_" cx="-0.5175" cy="249.3477" r="0.2387" gradientTransform="matrix(181.3536 0 0 -181.3536 399.3003 45398.9531)" gradientUnits="userSpaceOnUse">
								<stop  offset="0" style="stop-color:#FFFFFF"/>
								<stop  offset="0.4725" style="stop-color:#FFFFFF"/>
								<stop  offset="1" style="stop-color:#1A171B"/>
							</radialGradient>
							
								<rect x="274.3" y="157.5" style="clip-path:url(#SVGID_00000131334378574827136580000003297860503118460560_);fill:url(#SVGID_00000042714293153034691930000016455496398434403491_);" width="67.9" height="67.9"/>
						</g>
					</g>
				</g>
			</g>
		</g>
	</g>
</g>
<g id="Emptystate">
	<g id="Desktop" transform="translate(-762 -295)">
		<g id="Group" transform="translate(761 295)">
			<g id="Illustration-list" transform="translate(1)">
				<path id="Fill-1" class="st21" d="M298.1,1.1h-0.4c-9.9,1.3-12.5,10.5-13.1,17.3c0,0,0,6.5,0,17.1h32c1.7,0,3-1.4,2.9-3
					C318.6,6.1,306.6,1.7,301,1.1H298.1C298,1.1,298.1,1.1,298.1,1.1"/>
				<path id="Stroke-3" class="st22" d="M298.1,1.1h-0.4c-9.9,1.3-12.5,10.5-13.1,17.3c0,0,0,6.5,0,17.1h32c1.7,0,3-1.4,2.9-3
					C318.6,6.1,306.6,1.7,301,1.1H298.1C298,1.1,298.1,1.1,298.1,1.1z"/>
				<path id="Fill-5" class="st23" d="M298.1,1.1h2.9C299.4,0.9,298.3,1.1,298.1,1.1"/>
				<path id="Stroke-7" class="st22" d="M298.1,1.1h2.9C299.4,0.9,298.3,1.1,298.1,1.1L298.1,1.1z"/>
				<path id="Fill-9" class="st24" d="M284.5,35.5c0-10.6,0-17.1,0-17.1c0.6-6.8,3.2-15.9,13.1-17.3h0.4l0,0h2.9
					c3.9,0.4,10.7,2.6,14.9,12.4l0,0c-8.8-6.9-16-6.2-19.7-4.1c-2.9,1.6-4.6,4.8-4.6,8.1V35L284.5,35.5"/>
				<path id="Stroke-11" class="st22" d="M298.1,1.1h-0.4c-9.9,1.3-12.5,10.5-13.1,17.3c0,0,0,6.5,0,17.1h32c1.7,0,3-1.4,2.9-3
					C318.6,6.1,306.6,1.7,301,1.1H298.1C298,1.1,298.1,1.1,298.1,1.1z"/>
				<path id="Fill-13" class="st23" d="M300.2,0.9L129.9,1.3c-9.6,0-17.5,7.8-17.5,17.5v196.5h132.4c1.6,0,2.9,1.3,2.9,2.8
					c0.8,26.5,12.8,30.9,18.4,31.5H128.9c0.3,0,0.6,0,0.9,0H267c9.6,0,17.5-7.8,17.5-17.5c0,0,0-213.7,0-213.8
					C285.2,11,288.2,0.9,300.2,0.9"/>
				<path id="Stroke-15" class="st22" d="M300.2,0.9L129.9,1.3c-9.6,0-17.5,7.8-17.5,17.5v196.5h132.4c1.6,0,2.9,1.3,2.9,2.8
					c0.8,26.5,12.8,30.9,18.4,31.5H128.9c0.3,0,0.6,0,0.9,0H267c9.6,0,17.5-7.8,17.5-17.5c0,0,0-213.7,0-213.8
					C285.2,11,288.2,0.9,300.2,0.9L300.2,0.9z"/>
				<path id="Fill-17" class="st21" d="M233.4,58.3c0-10-8.1-18.2-18-18.4c-5.9-0.1-11.3,2.6-14.7,6.9c-0.1,0.1-0.2,0.1-0.3,0l0,0
					c-3.4-4.3-8.7-7-14.7-6.9c-9.8,0.2-17.9,8.2-18,18c0,0.2,0,0.4,0,0.5c0,1.9,0.4,3.8,1.1,5.6c0.9,2.2,2.2,4.2,3.9,5.8l27.7,26.6
					c0.1,0.1,0.2,0.1,0.3,0l0,0l27.2-25.2c1.7-1.5,3.1-3.4,4-5.4c0.2-0.4,0.4-0.9,0.5-1.3C233,62.5,233.4,60.5,233.4,58.3"/>
				<path id="Stroke-19" class="st22" d="M233.4,58.3c0-10-8.1-18.2-18-18.4c-5.9-0.1-11.3,2.6-14.7,6.9c-0.1,0.1-0.2,0.1-0.3,0l0,0
					c-3.4-4.3-8.7-7-14.7-6.9c-9.8,0.2-17.9,8.2-18,18c0,0.2,0,0.4,0,0.5c0,1.9,0.4,3.8,1.1,5.6c0.9,2.2,2.2,4.2,3.9,5.8l27.7,26.6
					c0.1,0.1,0.2,0.1,0.3,0l0,0l27.2-25.2c1.7-1.5,3.1-3.4,4-5.4c0.2-0.4,0.4-0.9,0.5-1.3C233,62.5,233.4,60.5,233.4,58.3z"/>
				<path id="Fill-21" class="st21" d="M152.1,130c0,3.4-2.7,6.1-6.1,6.1c-3.4,0-6.1-2.7-6.1-6.1c0-3.4,2.7-6.1,6.1-6.1
					C149.4,123.9,152.1,126.6,152.1,130"/>
				<path id="Stroke-23" class="st22" d="M152.1,130c0,3.4-2.7,6.1-6.1,6.1c-3.4,0-6.1-2.7-6.1-6.1c0-3.4,2.7-6.1,6.1-6.1
					C149.4,123.9,152.1,126.6,152.1,130L152.1,130z"/>
				<path id="Fill-25" class="st21" d="M253,134.3h-85.7c-2.4,0-4.3-1.9-4.3-4.3c0-2.4,1.9-4.3,4.3-4.3H253c2.4,0,4.3,1.9,4.3,4.3
					C257.3,132.3,255.3,134.3,253,134.3"/>
				<path id="Stroke-27" class="st22" d="M253,134.3h-85.7c-2.4,0-4.3-1.9-4.3-4.3c0-2.4,1.9-4.3,4.3-4.3H253c2.4,0,4.3,1.9,4.3,4.3
					C257.3,132.3,255.3,134.3,253,134.3L253,134.3z"/>
				<path id="Fill-29" class="st21" d="M152.1,153c0,3.4-2.7,6.1-6.1,6.1c-3.4,0-6.1-2.7-6.1-6.1c0-3.4,2.7-6.1,6.1-6.1
					C149.4,146.9,152.1,149.6,152.1,153"/>
				<path id="Stroke-31" class="st22" d="M152.1,153c0,3.4-2.7,6.1-6.1,6.1c-3.4,0-6.1-2.7-6.1-6.1c0-3.4,2.7-6.1,6.1-6.1
					C149.4,146.9,152.1,149.6,152.1,153L152.1,153z"/>
				<path id="Fill-33" class="st21" d="M253,157.3h-85.7c-2.4,0-4.3-1.9-4.3-4.3c0-2.4,1.9-4.3,4.3-4.3H253c2.4,0,4.3,1.9,4.3,4.3
					C257.3,155.3,255.3,157.3,253,157.3"/>
				<path id="Stroke-35" class="st22" d="M253,157.3h-85.7c-2.4,0-4.3-1.9-4.3-4.3c0-2.4,1.9-4.3,4.3-4.3H253c2.4,0,4.3,1.9,4.3,4.3
					C257.3,155.3,255.3,157.3,253,157.3L253,157.3z"/>
				<path id="Fill-37" class="st21" d="M152.1,176c0,3.4-2.7,6.1-6.1,6.1c-3.4,0-6.1-2.7-6.1-6.1c0-3.4,2.7-6.1,6.1-6.1
					C149.4,169.9,152.1,172.6,152.1,176"/>
				<path id="Stroke-39" class="st22" d="M152.1,176c0,3.4-2.7,6.1-6.1,6.1c-3.4,0-6.1-2.7-6.1-6.1c0-3.4,2.7-6.1,6.1-6.1
					C149.4,169.9,152.1,172.6,152.1,176L152.1,176z"/>
				<path id="Fill-41" class="st21" d="M253,180.3h-85.7c-2.4,0-4.3-1.9-4.3-4.3c0-2.4,1.9-4.3,4.3-4.3H253c2.4,0,4.3,1.9,4.3,4.3
					C257.3,178.3,255.3,180.3,253,180.3"/>
				<path id="Stroke-43" class="st22" d="M253,180.3h-85.7c-2.4,0-4.3-1.9-4.3-4.3c0-2.4,1.9-4.3,4.3-4.3H253c2.4,0,4.3,1.9,4.3,4.3
					C257.3,178.3,255.3,180.3,253,180.3L253,180.3z"/>
				<path id="Stroke-61" class="st22" d="M300.2,0.9L129.9,1.3c-9.6,0-17.5,7.8-17.5,17.5v196.5h132.4c1.6,0,2.9,1.3,2.9,2.8
					c0.8,26.5,12.8,30.9,18.4,31.5H128.9c0.3,0,0.6,0,0.9,0H267c9.6,0,17.5-7.8,17.5-17.5c0,0,0-213.7,0-213.8
					C285.2,11,288.2,0.9,300.2,0.9L300.2,0.9z"/>
				<path id="Fill-63" class="st23" d="M244.9,215.2H97.1c-1.7,0-3,1.4-2.9,3c0.8,26.4,12.8,30.7,18.5,31.3h2.9c0,0-1.2,0.2-2.9,0
					h153.7c-5.7-0.6-17.6-5-18.4-31.5C247.7,216.5,246.4,215.2,244.9,215.2"/>
				<path id="Stroke-65" class="st22" d="M244.9,215.2H97.1c-1.7,0-3,1.4-2.9,3c0.8,26.4,12.8,30.7,18.5,31.3h2.9c0,0-1.2,0.2-2.9,0
					h153.7c-5.7-0.6-17.6-5-18.4-31.5C247.7,216.5,246.4,215.2,244.9,215.2L244.9,215.2z"/>
			</g>
		</g>
	</g>
</g>
<g class="st0">
	<g>
		<defs>
			<rect id="SVGID_00000093890281715287206760000018266154661921254784_" x="-32.3" y="-4.6" width="109.9" height="77.7"/>
		</defs>
		<clipPath id="SVGID_00000158734555569168086580000010346420688062827136_">
			<use xlink:href="#SVGID_00000093890281715287206760000018266154661921254784_"  style="overflow:visible;"/>
		</clipPath>
		<g style="clip-path:url(#SVGID_00000158734555569168086580000010346420688062827136_);">
			<defs>
				<rect id="SVGID_00000107590342830089443990000017885777256580792743_" x="-32.3" y="-4.6" width="109.9" height="77.7"/>
			</defs>
			<clipPath id="SVGID_00000027573096304173023990000014030190928934881453_">
				<use xlink:href="#SVGID_00000107590342830089443990000017885777256580792743_"  style="overflow:visible;"/>
			</clipPath>
			<g style="clip-path:url(#SVGID_00000027573096304173023990000014030190928934881453_);">
				<defs>
					<rect id="SVGID_00000034053971030255355030000007476307051928356737_" x="-32.3" y="-4.6" width="109.9" height="77.7"/>
				</defs>
				<clipPath id="SVGID_00000167388073629173019960000001153138808889656235_">
					<use xlink:href="#SVGID_00000034053971030255355030000007476307051928356737_"  style="overflow:visible;"/>
				</clipPath>
				<path style="clip-path:url(#SVGID_00000167388073629173019960000001153138808889656235_);fill:#CFD1D2;" d="M39.9,31.5
					c0,10.3-8.3,18.6-18.6,18.6c-10.3,0-18.6-8.3-18.6-18.6c0-10.3,8.3-18.6,18.6-18.6C31.6,12.9,39.9,21.2,39.9,31.5"/>
				<path style="clip-path:url(#SVGID_00000167388073629173019960000001153138808889656235_);fill:#FFFFFF;" d="M38.1,31.5
					c0,9.2-7.5,16.7-16.7,16.7c-9.2,0-16.7-7.5-16.7-16.7s7.5-16.7,16.7-16.7C30.6,14.7,38.1,22.2,38.1,31.5"/>
				<path style="clip-path:url(#SVGID_00000167388073629173019960000001153138808889656235_);fill:#9C9E9F;" d="M5.1,31.5
					c0,9,7.3,16.3,16.3,16.3c9,0,16.3-7.3,16.3-16.3c0-9-7.3-16.3-16.3-16.3C12.4,15.2,5.1,22.5,5.1,31.5"/>
				<g style="clip-path:url(#SVGID_00000167388073629173019960000001153138808889656235_);">
					<g>
						<defs>
							<rect id="SVGID_00000069373929208945406600000001139906475277422012_" x="2.9" y="16.9" width="36.4" height="25.7"/>
						</defs>
						<clipPath id="SVGID_00000178165074489702631550000011751304828594420154_">
							<use xlink:href="#SVGID_00000069373929208945406600000001139906475277422012_"  style="overflow:visible;"/>
						</clipPath>
						<g style="clip-path:url(#SVGID_00000178165074489702631550000011751304828594420154_);">
							<defs>
								<rect id="SVGID_00000001627159049156593290000016303086621870689972_" x="2.9" y="16.9" width="36.4" height="25.7"/>
							</defs>
							<clipPath id="SVGID_00000070114150034885253670000000445813093600300423_">
								<use xlink:href="#SVGID_00000001627159049156593290000016303086621870689972_"  style="overflow:visible;"/>
							</clipPath>
							<g style="clip-path:url(#SVGID_00000070114150034885253670000000445813093600300423_);">
								
									<image style="overflow:visible;" width="1160" height="819" xlink:href="58A6C0A46745D76E.png"  transform="matrix(3.133865e-02 0 0 3.133866e-02 2.9293 16.9182)">
								</image>
							</g>
						</g>
					</g>
				</g>
				<polygon style="clip-path:url(#SVGID_00000167388073629173019960000001153138808889656235_);fill:#FFFFFF;" points="9.6,27.9 
					10.1,35.3 10.2,35.3 10.8,27.9 13.1,27.9 13.7,35.3 13.7,35.3 14.3,27.9 16.3,27.9 14.9,37.5 12.5,37.5 11.9,30.5 11.9,30.5 
					11.2,37.5 8.8,37.5 7.4,27.9 				"/>
				<path style="clip-path:url(#SVGID_00000167388073629173019960000001153138808889656235_);fill:#FFFFFF;" d="M19.9,31.6v-1.7
					c0-0.2-0.1-0.5-0.4-0.5c-0.3,0-0.4,0.3-0.4,0.5v1.7H19.9z M17,29.9c0-1.4,1.1-2.2,2.5-2.2c1.3,0,2.5,0.7,2.5,2.2V33h-2.9v2.5
					c0,0.2,0.1,0.5,0.4,0.5c0.3,0,0.4-0.3,0.4-0.5v-1.8H22v1.8c0,1.4-1.2,2.2-2.5,2.2c-1.4,0-2.5-0.7-2.5-2.2V29.9z"/>
				<polygon style="clip-path:url(#SVGID_00000167388073629173019960000001153138808889656235_);fill:#FFFFFF;" points="23.1,37.5 
					23.1,21.4 25.3,21.4 25.3,32.2 25.3,32.2 26.2,27.9 28.4,27.9 27.3,32 28.3,37.5 26.2,37.5 25.3,32.4 25.3,32.4 25.3,37.5 				
					"/>
				<path style="clip-path:url(#SVGID_00000167388073629173019960000001153138808889656235_);fill:#FFFFFF;" d="M31.3,35.5
					c0,0.2,0.1,0.5,0.4,0.5c0.3,0,0.4-0.3,0.4-0.5v-2.8L31.6,33c-0.3,0.3-0.4,0.3-0.4,0.8V35.5z M29.1,29.9c0-1.4,1.1-2.2,2.5-2.2
					c1.3,0,2.5,0.7,2.5,2.2v5.6c0,0.7,0.1,1.3,0.2,1.9h-2.2l-0.1-1h0c-0.3,0.8-0.8,1.1-1.4,1.1c-1.1,0-1.4-0.6-1.4-1.7v-2.1
					c0-2.4,2.9-1.5,2.9-3.6v-0.4c0-0.2-0.1-0.5-0.4-0.5c-0.3,0-0.4,0.3-0.4,0.5v1.4h-2.1V29.9z"/>
				<g style="opacity:0.72;clip-path:url(#SVGID_00000167388073629173019960000001153138808889656235_);">
					<g>
						<defs>
							<rect id="SVGID_00000079460677655393911940000015653261978074912943_" x="2.8" y="12.9" width="37.2" height="37.2"/>
						</defs>
						<clipPath id="SVGID_00000057110665026835369080000003400308873120534971_">
							<use xlink:href="#SVGID_00000079460677655393911940000015653261978074912943_"  style="overflow:visible;"/>
						</clipPath>
						<g style="clip-path:url(#SVGID_00000057110665026835369080000003400308873120534971_);">
							<defs>
								<path id="SVGID_00000182510875199430476400000017447385580200331155_" d="M39.9,31.5c0,10.3-8.3,18.6-18.6,18.6
									c-10.3,0-18.6-8.3-18.6-18.6c0-10.3,8.3-18.6,18.6-18.6C31.6,12.9,39.9,21.2,39.9,31.5"/>
							</defs>
							<clipPath id="SVGID_00000021084521093185853910000015807059602910836918_">
								<use xlink:href="#SVGID_00000182510875199430476400000017447385580200331155_"  style="overflow:visible;"/>
							</clipPath>
							
								<radialGradient id="SVGID_00000123405061379072751340000003744905732141740710_" cx="-2.0925" cy="250.1984" r="0.1306" gradientTransform="matrix(181.3536 0 0 -181.3536 399.3003 45398.9531)" gradientUnits="userSpaceOnUse">
								<stop  offset="0" style="stop-color:#FFFFFF"/>
								<stop  offset="0.4725" style="stop-color:#FFFFFF"/>
								<stop  offset="1" style="stop-color:#1A171B"/>
							</radialGradient>
							
								<rect x="2.8" y="12.9" style="clip-path:url(#SVGID_00000021084521093185853910000015807059602910836918_);fill:url(#SVGID_00000123405061379072751340000003744905732141740710_);" width="37.2" height="37.2"/>
						</g>
					</g>
				</g>
			</g>
		</g>
	</g>
</g>
<g class="st0">
	<g>
		<defs>
			<rect id="SVGID_00000124136681928852647430000005424423858599179187_" x="357.4" y="34.2" width="64.9" height="45.9"/>
		</defs>
		<clipPath id="SVGID_00000009564408924980591910000012850932766190233242_">
			<use xlink:href="#SVGID_00000124136681928852647430000005424423858599179187_"  style="overflow:visible;"/>
		</clipPath>
		<g style="clip-path:url(#SVGID_00000009564408924980591910000012850932766190233242_);">
			<defs>
				<rect id="SVGID_00000170972546537389523310000002018629954630189958_" x="357.4" y="34.2" width="64.9" height="45.9"/>
			</defs>
			<clipPath id="SVGID_00000038387749621908492650000002329648778864478117_">
				<use xlink:href="#SVGID_00000170972546537389523310000002018629954630189958_"  style="overflow:visible;"/>
			</clipPath>
			<g style="clip-path:url(#SVGID_00000038387749621908492650000002329648778864478117_);">
				<defs>
					<rect id="SVGID_00000122715674176549104110000003487989052477723068_" x="357.4" y="34.2" width="64.9" height="45.9"/>
				</defs>
				<clipPath id="SVGID_00000080201996141184486320000015028355490872167553_">
					<use xlink:href="#SVGID_00000122715674176549104110000003487989052477723068_"  style="overflow:visible;"/>
				</clipPath>
				<path style="clip-path:url(#SVGID_00000080201996141184486320000015028355490872167553_);fill:#CFD1D2;" d="M400.1,55.6
					c0,6.1-4.9,11-11,11c-6.1,0-11-4.9-11-11c0-6.1,4.9-11,11-11C395.2,44.6,400.1,49.5,400.1,55.6"/>
				<path style="clip-path:url(#SVGID_00000080201996141184486320000015028355490872167553_);fill:#FFFFFF;" d="M399,55.6
					c0,5.5-4.4,9.9-9.9,9.9c-5.5,0-9.9-4.4-9.9-9.9s4.4-9.9,9.9-9.9C394.6,45.7,399,50.1,399,55.6"/>
				<path style="clip-path:url(#SVGID_00000080201996141184486320000015028355490872167553_);fill:#9C9E9F;" d="M379.5,55.6
					c0,5.3,4.3,9.6,9.6,9.6c5.3,0,9.6-4.3,9.6-9.6c0-5.3-4.3-9.6-9.6-9.6C383.8,45.9,379.5,50.2,379.5,55.6"/>
				<g style="clip-path:url(#SVGID_00000080201996141184486320000015028355490872167553_);">
					<g>
						<defs>
							<rect id="SVGID_00000168806271854475920460000014025159677770624180_" x="378.2" y="47" width="21.5" height="15.2"/>
						</defs>
						<clipPath id="SVGID_00000008831964455236693430000001650086290713635728_">
							<use xlink:href="#SVGID_00000168806271854475920460000014025159677770624180_"  style="overflow:visible;"/>
						</clipPath>
						<g style="clip-path:url(#SVGID_00000008831964455236693430000001650086290713635728_);">
							<defs>
								<rect id="SVGID_00000025403447726113995670000004100530072915629204_" x="378.2" y="47" width="21.5" height="15.2"/>
							</defs>
							<clipPath id="SVGID_00000135661347781403642570000004076788187690922667_">
								<use xlink:href="#SVGID_00000025403447726113995670000004100530072915629204_"  style="overflow:visible;"/>
							</clipPath>
							<g style="clip-path:url(#SVGID_00000135661347781403642570000004076788187690922667_);">
								
									<image style="overflow:visible;" width="1160" height="819" xlink:href="58A6C0A46745D76F.png"  transform="matrix(1.850247e-02 0 0 1.850247e-02 378.2296 46.9605)">
								</image>
							</g>
						</g>
					</g>
				</g>
				<polygon style="clip-path:url(#SVGID_00000080201996141184486320000015028355490872167553_);fill:#FFFFFF;" points="382.2,53.4 
					382.5,57.8 382.5,57.8 382.9,53.4 384.2,53.4 384.6,57.8 384.6,57.8 384.9,53.4 386.1,53.4 385.3,59.1 383.9,59.1 383.5,55 
					383.5,55 383.1,59.1 381.7,59.1 380.9,53.4 				"/>
				<path style="clip-path:url(#SVGID_00000080201996141184486320000015028355490872167553_);fill:#FFFFFF;" d="M388.3,55.6v-1
					c0-0.1-0.1-0.3-0.2-0.3c-0.2,0-0.2,0.2-0.2,0.3v1H388.3z M386.5,54.6c0-0.9,0.7-1.3,1.5-1.3c0.8,0,1.5,0.4,1.5,1.3v1.8h-1.7v1.5
					c0,0.1,0,0.3,0.2,0.3c0.2,0,0.2-0.2,0.2-0.3v-1.1h1.3v1c0,0.9-0.7,1.3-1.5,1.3c-0.8,0-1.5-0.4-1.5-1.3V54.6z"/>
				<polygon style="clip-path:url(#SVGID_00000080201996141184486320000015028355490872167553_);fill:#FFFFFF;" points="390.2,59.1 
					390.2,49.6 391.4,49.6 391.4,56 391.4,56 391.9,53.4 393.3,53.4 392.6,55.9 393.2,59.1 391.9,59.1 391.4,56.1 391.4,56.1 
					391.4,59.1 				"/>
				<path style="clip-path:url(#SVGID_00000080201996141184486320000015028355490872167553_);fill:#FFFFFF;" d="M395,57.9
					c0,0.1,0,0.3,0.2,0.3c0.2,0,0.2-0.2,0.2-0.3v-1.6l-0.2,0.2c-0.2,0.2-0.2,0.2-0.2,0.4V57.9z M393.7,54.6c0-0.9,0.7-1.3,1.5-1.3
					c0.8,0,1.5,0.4,1.5,1.3v3.3c0,0.4,0.1,0.8,0.1,1.2h-1.3l-0.1-0.6h0c-0.2,0.5-0.5,0.6-0.8,0.6c-0.6,0-0.8-0.4-0.8-1v-1.2
					c0-1.4,1.7-0.9,1.7-2.1v-0.2c0-0.1-0.1-0.3-0.2-0.3c-0.2,0-0.2,0.2-0.2,0.3v0.8h-1.3V54.6z"/>
				<g style="opacity:0.72;clip-path:url(#SVGID_00000080201996141184486320000015028355490872167553_);">
					<g>
						<defs>
							<rect id="SVGID_00000163795041227733502890000013653099799253649834_" x="378.1" y="44.6" width="21.9" height="21.9"/>
						</defs>
						<clipPath id="SVGID_00000177452174768402433890000003770254995830220216_">
							<use xlink:href="#SVGID_00000163795041227733502890000013653099799253649834_"  style="overflow:visible;"/>
						</clipPath>
						<g style="clip-path:url(#SVGID_00000177452174768402433890000003770254995830220216_);">
							<defs>
								<path id="SVGID_00000015347335481145840330000012756427726193726620_" d="M400.1,55.6c0,6.1-4.9,11-11,11
									c-6.1,0-11-4.9-11-11c0-6.1,4.9-11,11-11C395.2,44.6,400.1,49.5,400.1,55.6"/>
							</defs>
							<clipPath id="SVGID_00000119081508876031173440000014585930528180435901_">
								<use xlink:href="#SVGID_00000015347335481145840330000012756427726193726620_"  style="overflow:visible;"/>
							</clipPath>
							
								<radialGradient id="SVGID_00000077287017858187622940000000811341331268390318_" cx="-6.121988e-02" cy="250.05" r="7.709362e-02" gradientTransform="matrix(181.3536 0 0 -181.3536 399.3003 45398.9531)" gradientUnits="userSpaceOnUse">
								<stop  offset="0" style="stop-color:#FFFFFF"/>
								<stop  offset="0.4725" style="stop-color:#FFFFFF"/>
								<stop  offset="1" style="stop-color:#1A171B"/>
							</radialGradient>
							
								<rect x="378.1" y="44.6" style="clip-path:url(#SVGID_00000119081508876031173440000014585930528180435901_);fill:url(#SVGID_00000077287017858187622940000000811341331268390318_);" width="21.9" height="21.9"/>
						</g>
					</g>
				</g>
			</g>
		</g>
	</g>
</g>
</svg>
