<?xml version="1.0" encoding="utf-8"?>
<!-- Generator: Adobe Illustrator 27.3.0, SVG Export Plug-In . SVG Version: 6.00 Build 0)  -->
<svg version="1.1" id="Ebene_1" xmlns="http://www.w3.org/2000/svg" xmlns:xlink="http://www.w3.org/1999/xlink" x="0px" y="0px"
	 viewBox="0 0 531 294" style="enable-background:new 0 0 531 294;" xml:space="preserve">
<style type="text/css">
	.st0{fill:none;stroke:#C4C4C4;stroke-width:1.6;stroke-linecap:square;}
	.st1{fill-rule:evenodd;clip-rule:evenodd;fill:#E3E3E3;stroke:#C4C4C4;stroke-width:1.6;}
	.st2{fill-rule:evenodd;clip-rule:evenodd;fill:#F3F3F3;}
	.st3{fill-rule:evenodd;clip-rule:evenodd;fill:#F6F6F6;stroke:#C4C4C4;stroke-width:1.6;}
	.st4{fill-rule:evenodd;clip-rule:evenodd;fill:#FFFFFF;}
	.st5{fill-rule:evenodd;clip-rule:evenodd;fill:#D8D8D8;}
	.st6{fill-rule:evenodd;clip-rule:evenodd;fill:#FAFAFA;stroke:#C4C4C4;stroke-width:1.6;}
	.st7{fill-rule:evenodd;clip-rule:evenodd;fill:#FFFFFF;stroke:#C4C4C4;stroke-width:1.6;}
	.st8{fill-rule:evenodd;clip-rule:evenodd;fill:#ECECEC;stroke:#C4C4C4;stroke-width:1.6;}
	.st9{fill-rule:evenodd;clip-rule:evenodd;fill:#F3F3F3;stroke:#C4C4C4;stroke-width:1.6;}
	.st10{fill-rule:evenodd;clip-rule:evenodd;fill:#E0E0E0;}
	.st11{fill-rule:evenodd;clip-rule:evenodd;fill:#C4C4C4;}
	.st12{fill-rule:evenodd;clip-rule:evenodd;fill:#E1DEDE;stroke:#C4C4C4;stroke-width:1.6;}
	.st13{fill-rule:evenodd;clip-rule:evenodd;fill:#FFFFFF;stroke:#C4C4C4;stroke-width:1.6;stroke-linejoin:round;}
	.st14{fill-rule:evenodd;clip-rule:evenodd;fill:#F3F3F3;stroke:#C4C4C4;stroke-width:1.6;stroke-linejoin:round;}
	.st15{fill:none;stroke:#C4C4C4;stroke-width:1.6;stroke-linecap:round;}
	.st16{fill-rule:evenodd;clip-rule:evenodd;fill:#F4F4F4;}
	.st17{fill:none;stroke:#FFFFFF;stroke-width:1.6;stroke-linecap:round;}
	.st18{fill-rule:evenodd;clip-rule:evenodd;fill:#DDDCDC;stroke:#C4C4C4;stroke-width:1.6;}
	.st19{fill-rule:evenodd;clip-rule:evenodd;fill:#D8D8D8;stroke:#C4C4C4;stroke-width:1.6;}
	.st20{opacity:0.25;}
	.st21{clip-path:url(#SVGID_00000051354014777218261990000003156662552503907238_);}
	.st22{clip-path:url(#SVGID_00000170975446916973473980000006065861235342237114_);}
	.st23{clip-path:url(#SVGID_00000166652612206666679760000015034810103018402189_);fill:#CFD1D2;}
	.st24{clip-path:url(#SVGID_00000166652612206666679760000015034810103018402189_);fill:#FFFFFF;}
	.st25{clip-path:url(#SVGID_00000166652612206666679760000015034810103018402189_);fill:#9C9E9F;}
	.st26{clip-path:url(#SVGID_00000166652612206666679760000015034810103018402189_);}
	.st27{clip-path:url(#SVGID_00000139279676390980378410000009881785242561891983_);}
	.st28{opacity:0.72;clip-path:url(#SVGID_00000166652612206666679760000015034810103018402189_);}
	.st29{clip-path:url(#SVGID_00000048490451001487148350000009894020743396176268_);}
	
		.st30{clip-path:url(#SVGID_00000121996096950224405230000018131676035114716323_);fill:url(#SVGID_00000068635743536359204670000011599314961206779549_);}
</style>
<g id="Templates">
	<g id="Maintenance-Page" transform="translate(-694 -329)">
		<g id="Group-2" transform="translate(695 331)">
			<g id="maintenance-illustration">
				<line id="desk" class="st0" x1="0.6" y1="290.8" x2="529" y2="290.8"/>
				<g id="monitor" transform="translate(136.6 101)">
					<g id="stand" transform="translate(88.3026 159.4718)">
						<path id="shadow" class="st1" d="M8.3-0.8h63.9l9.3,30.3H-1.1L8.3-0.8z"/>
						<path id="light" class="st2" d="M22.3,4.6h35.1c4.7,0,8.7,3.1,10,7.6l1.5,5.2c1.5,5.3-1.6,10.9-7,12.4
							c-0.9,0.2-1.8,0.4-2.7,0.4H20.5c-5.5,0-10-4.5-10-10c0-0.9,0.1-1.8,0.4-2.7l1.5-5.2C13.6,7.7,17.7,4.6,22.3,4.6z"/>
					</g>
					<g id="body">
						<path id="shadow_00000005229903349065480120000003253933740032287148_" class="st3" d="M4.8-0.8h246.7c3.1,0,5.6,2.5,5.6,5.6
							v150.5c0,3.1-2.5,5.6-5.6,5.6H4.8c-3.1,0-5.6-2.5-5.6-5.6V4.8C-0.8,1.7,1.7-0.8,4.8-0.8z"/>
						<path id="light_00000164490905760783888700000011279993337523348890_" class="st4" d="M6,2h244.4c2.2,0,4,1.8,4,4v146.9
							c0,2.2-1.8,4-4,4H6c-2.2,0-4-1.8-4-4V6C2,3.8,3.8,2,6,2z"/>
					</g>
					<g id="logo" transform="translate(123.8872 146.2923)">
						<circle id="shadow_00000031164926341373412040000007565632730107821196_" class="st5" cx="4.6" cy="4.6" r="4.6"/>
						<circle id="light_00000089540569597242324670000011148987461150678459_" class="st4" cx="4.3" cy="3.6" r="4.3"/>
					</g>
					<g id="screen" transform="translate(9 8.6)">
						<path id="shadow_00000041272575358941221340000016979415700711647888_" class="st6" d="M1.6-0.8h236c1.3,0,2.4,1.1,2.4,2.4
							v129.6c0,1.3-1.1,2.4-2.4,2.4H1.6c-1.3,0-2.4-1.1-2.4-2.4V1.6C-0.8,0.3,0.3-0.8,1.6-0.8z"/>
						<path id="light_00000018207175665880276220000012860648417509709468_" class="st4" d="M8,2.4h223.2c1.3,0,2.4,1.1,2.4,2.4
							v118.4c0,1.3-1.1,2.4-2.4,2.4H8c-1.3,0-2.4-1.1-2.4-2.4V4.8C5.6,3.5,6.7,2.4,8,2.4z"/>
					</g>
				</g>
				<g id="keyboard" transform="translate(175 281.2)">
					<g id="keys" transform="translate(3.9574)">
						<path id="key7" class="st7" d="M136.7,3.3h9.6V1.6c0-0.4-0.4-0.8-0.8-0.8l0,0h-8c-0.4,0-0.8,0.4-0.8,0.8l0,0V3.3L136.7,3.3z"
							/>
						<path id="key6" class="st7" d="M122.2,3.3h9.6V1.6c0-0.4-0.4-0.8-0.8-0.8l0,0h-8c-0.4,0-0.8,0.4-0.8,0.8l0,0V3.3L122.2,3.3z"
							/>
						<path id="key5" class="st7" d="M107.7,3.3h9.6V1.6c0-0.4-0.4-0.8-0.8-0.8l0,0h-8c-0.4,0-0.8,0.4-0.8,0.8l0,0L107.7,3.3
							L107.7,3.3z"/>
						<path id="space" class="st7" d="M44.3,3.3h51.2V1.6c0-0.4-0.4-0.8-0.8-0.8l0,0H45.1c-0.4,0-0.8,0.4-0.8,0.8V3.3L44.3,3.3z"/>
						<path id="key3" class="st7" d="M29.8,3.3h9.6V1.6c0-0.4-0.4-0.8-0.8-0.8h-8c-0.4,0-0.8,0.4-0.8,0.8
							C29.8,1.6,29.8,3.3,29.8,3.3z"/>
						<path id="key2" class="st7" d="M15.3,3.3h9.6V1.6c0-0.4-0.4-0.8-0.8-0.8h-8c-0.4,0-0.8,0.4-0.8,0.8l0,0L15.3,3.3z"/>
						<path id="key1" class="st7" d="M0.8,3.3h9.6V1.6c0-0.4-0.4-0.8-0.8-0.8l0,0h-8c-0.4,0-0.8,0.4-0.8,0.8
							C0.8,1.6,0.8,3.3,0.8,3.3z"/>
					</g>
					<g id="board" transform="translate(0 3.9574)">
						<path id="shadow_00000064319880859615171200000017790292359752826537_" class="st8" d="M1.6-0.8h151.8c1.3,0,2.4,1.1,2.4,2.4
							v3.8H-0.8V1.6C-0.8,0.3,0.3-0.8,1.6-0.8z"/>
						<path id="light_00000147939823274595285570000006901220794707541391_" class="st4" d="M1.6,0h151.8c0.9,0,1.6,0.7,1.6,1.6v0.9
							H0V1.6C0,0.7,0.7,0,1.6,0z"/>
					</g>
				</g>
				<g id="mouse" transform="translate(351.4 277.9)">
					<path id="shadow_00000026125177723975898810000016987188789602361481_" class="st9" d="M12-0.8h5.3c7.1,0,12.8,5.7,12.8,12.8
						v0.8H-0.8V12C-0.8,4.9,4.9-0.8,12-0.8z"/>
					<path id="Combined-Shape" class="st4" d="M17.3,0c3.4,0,6.5,1.4,8.6,3.7c-0.3,2.8-2.7,5-5.6,5H0.4C1.9,3.7,6.5,0,12,0H17.3z"/>
				</g>
				<g id="browser-element" transform="translate(163.2 85.6)">
					<path id="screen_00000020373473929122768330000017851839641729762748_" class="st7" d="M1.6-0.8H200c1.3,0,2.4,1.1,2.4,2.4
						v119.2c0,1.3-1.1,2.4-2.4,2.4H1.6c-1.3,0-2.4-1.1-2.4-2.4V1.6C-0.8,0.3,0.3-0.8,1.6-0.8z"/>
					<g id="browser-bar">
						<path id="BG" class="st10" d="M2.4,0h196.8c1.3,0,2.4,1.1,2.4,2.4v9H0v-9C0,1.1,1.1,0,2.4,0z"/>
						<path id="plugin" class="st11" d="M189.5,3h3.6c0.9,0,1.6,0.7,1.6,1.6v2.1c0,0.9-0.7,1.6-1.6,1.6h-3.6c-0.9,0-1.6-0.7-1.6-1.6
							V4.6C187.9,3.7,188.6,3,189.5,3z"/>
						<path id="search-bar" class="st4" d="M45.2,3h114.7c0.9,0,1.6,0.7,1.6,1.6v2.1c0,0.9-0.7,1.6-1.6,1.6H45.2
							c-0.9,0-1.6-0.7-1.6-1.6V4.6C43.6,3.7,44.3,3,45.2,3z"/>
						<g id="options" transform="translate(6.8339 3.784)">
							<circle id="Oval" class="st11" cx="14.8" cy="2" r="2"/>
							<circle id="Oval_00000152257099257144144780000017012208664018398349_" class="st11" cx="8.4" cy="2" r="2"/>
							<circle id="Oval_00000117652435345625701610000013612402515184158126_" class="st11" cx="2" cy="2" r="2"/>
						</g>
					</g>
				</g>
				<g id="crane" transform="translate(95.2)">
					<g id="hook" transform="translate(156 48.8)">
						<g transform="translate(6.4 21.6)">
							<g id="base" transform="translate(1.6)">
								<circle id="shadow_00000054966094182480795450000016630220125175695263_" class="st12" cx="4.8" cy="4.8" r="5.6"/>
								<circle id="light_00000152983265169465007660000004273029491869893043_" class="st2" cx="4.8" cy="6.4" r="4.8"/>
							</g>
							<path id="element-bottom" class="st13" d="M3.5,17.6h5.9c0.8,0,1.7-0.7,2-1.6l1.4-4H0l1.4,4C1.7,16.9,2.6,17.6,3.5,17.6z"/>
							<path id="element-top" class="st14" d="M3.2,6.4h6.4c0.9,0,1.8,0.7,2.1,1.6l1.1,4H0l1.1-4C1.4,7.1,2.3,6.4,3.2,6.4z"/>
						</g>
						<g id="ropes" transform="translate(10.4 11.2)">
							<line id="rope" class="st15" x1="4" y1="0" x2="4" y2="9.6"/>
							<line id="rope_00000157289467233122201300000009140789457479405485_" class="st15" x1="0.8" y1="0" x2="0.8" y2="9.6"/>
						</g>
						<g id="base_00000124122862862803533580000001472388597562305436_">
							<g id="element-bottom_00000074441426526116716630000000540020802235337117_" transform="translate(4)">
								<path id="shadow_00000167382841364375755290000001966902970352552356_" class="st12" d="M1.6-0.8H16c1.3,0,2.4,1.1,2.4,2.4
									v3.6c0,3.3-2.7,6-6,6H5.2c-3.3,0-6-2.7-6-6V1.6C-0.8,0.3,0.3-0.8,1.6-0.8z"/>
								<path id="Combined-Shape_00000037677340178374812660000006406192549774552487_" class="st2" d="M12.4,10.4H5.2
									c-1.8,0-3.5-1-4.4-2.4h16C15.9,9.4,14.2,10.4,12.4,10.4z"/>
							</g>
							<g id="element-top_00000148658255196215500400000015273360680847542929_">
								<path id="shadow_00000155864508910560066870000016958569381933378207_" class="st12" d="M-0.8-0.8h27.2V4
									c0,1.3-1.1,2.4-2.4,2.4H1.6C0.3,6.4-0.8,5.3-0.8,4V-0.8z"/>
								<path id="light_00000111188829678973147790000002874907562993837193_" class="st2" d="M0,2.4h25.6V4c0,0.9-0.7,1.6-1.6,1.6
									H1.6C0.7,5.6,0,4.9,0,4V2.4z"/>
							</g>
						</g>
					</g>
					<g id="basic-scaffolding" transform="translate(312)">
						<g id="base_00000139972752097274505240000009273806615226237845_" transform="translate(0 262.4)">
							<g id="element-bottom_00000172399930649850287760000015088689280487336626_" transform="translate(0 12)">
								<path id="shadow_00000052081077152951031440000008932039666705881474_" class="st12" d="M1.6-0.8h76.8
									c1.3,0,2.4,1.1,2.4,2.4V16H-0.8V1.6C-0.8,0.3,0.3-0.8,1.6-0.8z"/>
								<path id="light_00000151518700511798650310000000931419483408013753_" class="st16" d="M1.6,0H75v10.4
									c0,0.9-0.7,1.6-1.6,1.6H0V1.6C0,0.7,0.7,0,1.6,0z"/>
							</g>
							<g id="element-top_00000005958293059157723810000010990198323804943785_" transform="translate(12)">
								<path id="shadow_00000108283936704762532950000017257168247974788247_" class="st12" d="M1.6-0.8h52.8
									c1.3,0,2.4,1.1,2.4,2.4v9.6H-0.8V1.6C-0.8,0.3,0.3-0.8,1.6-0.8z"/>
								<path id="light_00000128476273513759331530000003992295738034114720_" class="st16" d="M1.6,0H53v6.4C53,7.3,52.3,8,51.4,8
									H0V1.6C0,0.7,0.7,0,1.6,0z"/>
							</g>
						</g>
						<g id="element-bottom_00000071562171574602247770000015146066449505755311_" transform="translate(20.8 231.2)">
							<path id="shadow_00000106144622440019408960000006748075947486959250_" class="st9" d="M1.6-0.8h35.2c1.3,0,2.4,1.1,2.4,2.4
								v28.8h-40V1.6C-0.8,0.3,0.3-0.8,1.6-0.8z"/>
							<path id="light_00000160897649735925451830000016434539534016424366_" class="st4" d="M1.6,0H31v25.4c0,0.9-0.7,1.6-1.6,1.6
								H0V1.6C0,0.7,0.7,0,1.6,0z"/>
						</g>
						<g id="element-middle" transform="translate(28.8 105.6)">
							<path id="shadow_00000148625945874648523620000009050681275057631157_" class="st9" d="M1.6-0.8h19.2c1.3,0,2.4,1.1,2.4,2.4
								v123.2h-24V1.6C-0.8,0.3,0.3-0.8,1.6-0.8z"/>
							<path id="light_00000014629455829880492270000016130915787795368330_" class="st4" d="M1.6,0H16v124H0V1.6C0,0.7,0.7,0,1.6,0
								z"/>
						</g>
						<g id="element-top_00000173839902111184303610000012675716937210397350_" transform="translate(35.2)">
							<path id="shadow_00000014615170566883789780000004592461657813963191_" class="st12" d="M4.8-0.8c3.1,0,5.6,2.5,5.6,5.6v100
								H-0.8V4.8C-0.8,1.7,1.7-0.8,4.8-0.8z"/>
							<path id="light_00000109020183845836115240000007554640719451429045_" class="st16" d="M3,3c1.7,0,3,1.3,3,3v98H0V6
								C0,4.3,1.3,3,3,3z"/>
						</g>
						<g id="driver_x27_s-cab" transform="translate(4.8 62.4)">
							<g id="cab">
								<path id="shadow_00000132792548894243832930000015311830341788467078_" class="st9" d="M23.1-0.8h4.1c1.3,0,2.4,1.1,2.4,2.4
									v28c0,1.3-1.1,2.4-2.4,2.4H1.6c-1.3,0-2.4-1.1-2.4-2.4V15.8c0-0.8,0.4-1.6,1.1-2L21.7-0.4C22.1-0.7,22.6-0.8,23.1-0.8z"/>
								<path id="light_00000092439460720674060720000004436415422212900023_" class="st4" d="M23,2.4h1c0.8,0,1.5,0.7,1.5,1.5v25.7
									c0,0.9-0.7,1.6-1.6,1.6H1.6c-0.9,0-1.6-0.7-1.6-1.6V18.5c0-0.5,0.3-1,0.7-1.3L22.1,2.7C22.4,2.5,22.7,2.4,23,2.4z"/>
							</g>
							<g id="window" transform="translate(3.2 4.8)">
								<path id="shadow_00000119102044673524540610000012504444696265232783_" class="st12" d="M19.7-0.8h0.7c1.1,0,2,0.9,2,2v10
									c0,1.3-1.1,2.4-2.4,2.4H2.6C1.8,13.6,1,12.9,1,12c0-0.5,0.3-1,0.7-1.3L18.4-0.4C18.8-0.7,19.3-0.8,19.7-0.8z"/>
								<path id="light_00000111161380259867695930000014557067343027610256_" class="st16" d="M18.5,0.8h0.7c0.6,0,1.2,0.5,1.2,1.2
									v9.2c0,0.9-0.7,1.6-1.6,1.6H2.6c-0.4,0-0.8-0.4-0.8-0.8c0-0.3,0.1-0.5,0.4-0.7L17.7,1.1C17.9,0.9,18.2,0.8,18.5,0.8z"/>
								<g id="light-reflection" transform="translate(8.2 3.8)">
									<line id="element-2" class="st17" x1="6.1" y1="5.5" x2="9.1" y2="3.5"/>
									<line id="element-1" class="st17" x1="0.4" y1="6" x2="9.2" y2="0.4"/>
								</g>
							</g>
						</g>
					</g>
					<g id="steering-frame" transform="translate(0 4.8)">
						<g id="ropes_00000163766091844255261680000003066030119306410153_" transform="translate(100.8)">
							<path id="hook-rope" class="st15" d="M242.4,44c0,0-29.1,13.6-82,13.6c-28,0-53.2-4.5-75.6-13.6"/>
							<line id="rope_00000132771039341560057230000004606296356393500081_" class="st15" x1="256.8" y1="0" x2="303.2" y2="26.4"/>
							<line id="rope_00000073711966159549735280000013377950633590910639_" class="st15" x1="245.6" y1="0" x2="0" y2="32.8"/>
						</g>
						<g id="weight" transform="translate(374.4 27.2)">
							<path id="shadow_00000164485347781549627010000010461126162375618956_" class="st12" d="M0.8-0.8h36.8c0.9,0,1.6,0.7,1.6,1.6
								v34.4c0,0.9-0.7,1.6-1.6,1.6H0.8c-0.9,0-1.6-0.7-1.6-1.6V0.8C-0.8-0.1-0.1-0.8,0.8-0.8z"/>
							<path id="light_00000149368858596084936170000000151123649359901869_" class="st16" d="M0,19h30.4c0.9,0,1.6,0.7,1.6,1.6V36
								H1.6C0.7,36,0,35.3,0,34.4V19z"/>
						</g>
						<g id="element-right" transform="translate(362.4 32.8)">
							<path id="shadow_00000093898232119860407050000001718744316427959997_" class="st9" d="M66.5,6.5l-2.6-1.9
								c-4.4-3.2-9.8-5-15.3-5H10C4.3-0.4-0.4,4.3-0.4,10v0.8h65.5c1.3,0,2.4-1.1,2.4-2.4C67.5,7.6,67.1,6.9,66.5,6.5z"/>
							<path id="light_00000049204259748617888240000013013744475157232549_" class="st4" d="M61.3,7l-1-0.6C56.4,4,52,2.8,47.4,2.8
								h-37c-3.9,0-7,3.1-7,7c0,0.1,0,0.1,0,0.2h57.1c0.9,0,1.6-0.7,1.6-1.6C62.1,7.8,61.8,7.3,61.3,7z"/>
						</g>
						<g id="element-middle_00000044174723263795420210000007934646280716116668_" transform="translate(343.2 18.4)">
							<path id="shadow_00000145747033281789590530000009006373119027042473_" class="st9" d="M0.8-0.8h16c0.9,0,1.6,0.7,1.6,1.6
								v26.4c0,0.9-0.7,1.6-1.6,1.6h-16c-0.9,0-1.6-0.7-1.6-1.6V0.8C-0.8-0.1-0.1-0.8,0.8-0.8z"/>
							<path id="light_00000087376721721839784220000010245066009403716236_" class="st4" d="M0,2.4h12c0.9,0,1.6,0.7,1.6,1.6v22.4
								c0,0.9-0.7,1.6-1.6,1.6H1.6C0.7,28,0,27.3,0,26.4V2.4z"/>
						</g>
						<g id="element-left" transform="translate(0 33.6)">
							<path id="shadow_00000045603324210346229650000011259912891657335703_" class="st9" d="M4.3,6l2.9-1.8
								c5.1-3.2,11-4.9,17.1-4.9h306.9c5.7,0,10.4,4.7,10.4,10.4v0.8H5.5c-1.3,0-2.4-1.1-2.4-2.4C3.1,7.2,3.6,6.4,4.3,6z"/>
							<path id="light_00000168112828316619194120000007163086512746992286_" class="st4" d="M8.2,7.7L11,6.1
								c3.9-2.3,8.4-3.5,13-3.5h307c3.9,0,7,3.1,7,7H8.7c-0.6,0-1-0.4-1-1C7.7,8.2,7.9,7.9,8.2,7.7z"/>
						</g>
					</g>
				</g>
				<g id="books" transform="translate(23 258.8)">
					<g id="book-large" transform="translate(8 18.4)">
						<path id="shadow_00000037664842727059286190000014301544508852782479_" class="st8" d="M0.8-0.8h93.6c0.9,0,1.6,0.7,1.6,1.6
							V12c0,0.9-0.7,1.6-1.6,1.6H0.8c-0.9,0-1.6-0.7-1.6-1.6V0.8C-0.8-0.1-0.1-0.8,0.8-0.8z"/>
						<path id="light_00000036250821480166205960000017930266390713772707_" class="st4" d="M4.4,0h89.2c0.9,0,1.6,0.7,1.6,1.6V10H6
							c-0.9,0-1.6-0.7-1.6-1.6V0z"/>
						<g id="bond-left" transform="translate(17.6)">
							
								<rect id="shadow_00000029725919851577844310000008563104115983903163_" x="-0.8" y="-0.8" class="st18" width="8.8" height="14.4"/>
							<path id="light_00000108279180064797765930000004364445371732136838_" class="st2" d="M2.4,0h4.8v10H3.4c-0.6,0-1-0.4-1-1V0z
								"/>
						</g>
						<g id="bond-right" transform="translate(69.6)">
							
								<rect id="shadow_00000156584928478884465960000010352403936448023195_" x="-0.8" y="-0.8" class="st18" width="8.8" height="14.4"/>
							<path id="light_00000129182802000783827200000001223885229869834163_" class="st2" d="M2.4,0h4.8v10H3.4c-0.6,0-1-0.4-1-1V0z
								"/>
						</g>
					</g>
					<g id="book-medium" transform="translate(0 6.2)">
						<path id="shadow_00000088833110116436812720000018074134659705609857_" class="st8" d="M0.8,0.2h93.6c0.9,0,1.6,0.7,1.6,1.6v8
							c0,0.9-0.7,1.6-1.6,1.6H0.8c-0.9,0-1.6-0.7-1.6-1.6v-8C-0.8,0.9-0.1,0.2,0.8,0.2z"/>
						<path id="light_00000103986477798861349150000006922577915702124986_" class="st4" d="M4,1h89.6c0.9,0,1.6,0.7,1.6,1.6v5.6
							H5.6C4.7,8.2,4,7.5,4,6.6V1z"/>
						<g id="bond-right_00000127039423371318551070000005309858406029155497_" transform="translate(17.6 .2)">
							
								<rect id="shadow_00000153701537160247421780000011706618381638938262_" x="-0.8" y="-0.6" class="st18" width="8.8" height="11.8"/>
							<path id="light_00000166649913770286065140000011966570391473402529_" class="st2" d="M2.4,0.8h4.8v7.3H3.4c-0.6,0-1-0.4-1-1
								V0.8z"/>
						</g>
						<g id="bond-left_00000155850443381832578110000006846543587065748402_" transform="translate(69.6 .2)">
							
								<rect id="shadow_00000166671551679414652060000003850413801897933500_" x="-0.8" y="-0.6" class="st18" width="8.8" height="11.8"/>
							<path id="light_00000138540709413329474960000009344113184484943749_" class="st2" d="M2.4,0.8h4.8v7.3H3.4c-0.6,0-1-0.4-1-1
								V0.8z"/>
						</g>
					</g>
					<g id="magazine" transform="translate(15.2)">
						<path id="shadow_00000094609039975387316910000002203552102927652517_" class="st8" d="M0.8-0.8h68c0.9,0,1.6,0.7,1.6,1.6v4
							c0,0.9-0.7,1.6-1.6,1.6h-68c-0.9,0-1.6-0.7-1.6-1.6v-4C-0.8-0.1-0.1-0.8,0.8-0.8z"/>
						<path id="light_00000173131423829264987390000011313561963963533222_" class="st4" d="M3.2,0H68c0.9,0,1.6,0.7,1.6,1.6V4H4.8
							C3.9,4,3.2,3.3,3.2,2.4V0z"/>
					</g>
				</g>
				<g id="plant" transform="matrix(-1 0 0 1 109 128)">
					<g id="leaf">
						<g id="leaf-middle">
							<path id="shadow_00000010273091817043634780000008024781826617475739_" class="st19" d="M25.3,23.8c4.7-6.7,8.4-14.7,11.1-24
								l0.4-1.3l1,1C55.1,17.8,56.1,46.2,40,65.7L29.9,78l-0.6-0.7C15.5,62.7,13.8,40.4,25.3,23.8z"/>
							<path id="Combined-Shape_00000081648954968636950820000007805103434629112201_" class="st2" d="M32.2,55.6l-9.3,11.3
								c-6.8-13.4-5.9-29.8,3-42.6c4.7-6.8,8.4-14.8,11.2-24.2C46.9,17.5,45.4,39.6,32.2,55.6z"/>
						</g>
						<g id="leaf-left" transform="translate(.8 47.2)">
							<path id="shadow_00000132071263709613587150000013662248536192576403_" class="st19" d="M8.5-0.7c3.7,2.6,8.1,4.6,13,6
								c20.1,5.6,32.6,25.5,28.9,46l-0.1,0.8l-5.7-0.8C20.4,48,3.6,25.7,6.9,1.6C7,1.1,7.1,0.5,7.2-0.1l0.2-1.2L8.5-0.7z"/>
							<path id="Combined-Shape_00000113345876956187083590000005243467650300947856_" class="st2" d="M9.7,1.1L9.7,1.1
								c1,0.6,1.9,1.1,2.9,1.6c13.2,8.3,20.6,23.9,18,39.9l-0.1,0.6l-5-0.7l-0.6-0.1C12.5,33.3,5.5,18,7.7,1.8
								C7.8,1.4,7.9,1,7.9,0.6L8,0.3C8.5,0.5,9.1,0.8,9.7,1.1z"/>
						</g>
						<g id="leaf-right" transform="translate(19.2 37.6)">
							<path id="shadow_00000128447518122914163560000015879732495724421009_" class="st19" d="M25.8,14.3
								c3.9-3.4,7.4-8.3,10.4-14.7l0.7-1.5l0.7,1.5C48,20.1,39.8,45.1,19.4,55.5L18,56.3l-0.4-0.7C10.6,41.6,13.9,24.6,25.8,14.3z"
								/>
							<path id="Combined-Shape_00000112591088582140309750000013347885810389485963_" class="st2" d="M15.8,46.9L15.5,47
								C13,35.4,16.9,23,26.3,14.9c4-3.4,7.4-8.3,10.5-14.7C41.5,18.3,33.2,37.9,15.8,46.9z"/>
						</g>
					</g>
					<g id="pot" transform="translate(5.6 78.4)">
						<g id="element2" transform="translate(4 .8)">
							<path id="shadow_00000165944851934347928300000011073526925637499037_" class="st8" d="M2.7-0.8h45.7c1.8,0,3.2,1.4,3.2,3.2
								c0,0.1,0,0.3,0,0.4l-6.2,48H5.6l-6.1-48c-0.2-1.8,1-3.4,2.8-3.6C2.5-0.8,2.6-0.8,2.7-0.8z"/>
							<path id="light_00000070829034402744301850000000009851360505802925_" class="st4" d="M2,12h38.6c1.3,0,2.4,1.1,2.4,2.4
								c0,0.1,0,0.2,0,0.3L39,50H6.4L1.6,12.5C1.5,12.2,1.7,12,2,12C1.9,12,1.9,12,2,12z"/>
						</g>
						<g id="element1">
							<path id="shadow_00000098932539435579201490000009600881903002310812_" class="st8" d="M5.1-0.8h50.7c1.9,0,3.9,1.2,4.7,2.9
								c0.3,0.7,0.4,1.5,0,2.1l-2.2,4c-0.5,0.9-1.6,1.4-2.9,1.4H5.5c-1.3,0-2.4-0.5-3-1.4l-2.2-4c-0.7-1.5,0.5-3.5,2.5-4.4
								C3.6-0.6,4.4-0.8,5.1-0.8z"/>
							<path id="light_00000002346309129664384740000011445834366501730492_" class="st4" d="M4.9,0h43.7c1.6,0,3.4,1.1,4,2.4
								c0.2,0.5,0.3,1,0.1,1.4l-2.2,4c-0.4,0.6-1.2,1-2.2,1h-43c-1,0-1.9-0.4-2.2-1l-2.2-4C0.4,2.8,1.4,1.3,3,0.5
								C3.7,0.2,4.3,0,4.9,0z"/>
						</g>
					</g>
				</g>
			</g>
		</g>
	</g>
</g>
<g class="st20">
	<g>
		<defs>
			<rect id="SVGID_1_" x="164.2" y="88.6" width="200.9" height="142.1"/>
		</defs>
		<clipPath id="SVGID_00000104692274796299109830000007426216305912708003_">
			<use xlink:href="#SVGID_1_"  style="overflow:visible;"/>
		</clipPath>
		<g style="clip-path:url(#SVGID_00000104692274796299109830000007426216305912708003_);">
			<defs>
				<rect id="SVGID_00000127019391142443551320000001779139319498345098_" x="164.2" y="88.6" width="200.9" height="142.1"/>
			</defs>
			<clipPath id="SVGID_00000069359658364668837270000002313760303303684515_">
				<use xlink:href="#SVGID_00000127019391142443551320000001779139319498345098_"  style="overflow:visible;"/>
			</clipPath>
			<g style="clip-path:url(#SVGID_00000069359658364668837270000002313760303303684515_);">
				<defs>
					<rect id="SVGID_00000017518486190004357100000002680616457341548976_" x="164.2" y="88.6" width="200.9" height="142.1"/>
				</defs>
				<clipPath id="SVGID_00000145765486903654222820000011059477917644100005_">
					<use xlink:href="#SVGID_00000017518486190004357100000002680616457341548976_"  style="overflow:visible;"/>
				</clipPath>
				<path style="clip-path:url(#SVGID_00000145765486903654222820000011059477917644100005_);fill:#CFD1D2;" d="M296.3,154.6
					c0,18.8-15.2,34-34,34c-18.8,0-34-15.2-34-34c0-18.8,15.2-34,34-34C281.1,120.6,296.3,135.8,296.3,154.6"/>
				<path style="clip-path:url(#SVGID_00000145765486903654222820000011059477917644100005_);fill:#FFFFFF;" d="M292.9,154.6
					c0,16.9-13.7,30.6-30.6,30.6c-16.9,0-30.6-13.7-30.6-30.6s13.7-30.6,30.6-30.6C279.2,124,292.9,137.7,292.9,154.6"/>
				<path style="clip-path:url(#SVGID_00000145765486903654222820000011059477917644100005_);fill:#9C9E9F;" d="M232.6,154.6
					c0,16.4,13.3,29.8,29.8,29.8c16.4,0,29.8-13.3,29.8-29.8c0-16.4-13.3-29.7-29.8-29.7C245.9,124.8,232.6,138.1,232.6,154.6"/>
				<g style="clip-path:url(#SVGID_00000145765486903654222820000011059477917644100005_);">
					<g>
						<defs>
							<rect id="SVGID_00000071521438295225537830000003482624257906752393_" x="228.7" y="128" width="66.4" height="46.9"/>
						</defs>
						<clipPath id="SVGID_00000096742550713154517000000004340642290666625691_">
							<use xlink:href="#SVGID_00000071521438295225537830000003482624257906752393_"  style="overflow:visible;"/>
						</clipPath>
						<g style="clip-path:url(#SVGID_00000096742550713154517000000004340642290666625691_);">
							<defs>
								<rect id="SVGID_00000050641032177559933340000008590686108932234117_" x="228.7" y="128" width="66.4" height="46.9"/>
							</defs>
							<clipPath id="SVGID_00000179638013459488794430000006899224421912184215_">
								<use xlink:href="#SVGID_00000050641032177559933340000008590686108932234117_"  style="overflow:visible;"/>
							</clipPath>
							
								<g transform="matrix(1 0 0 1 0 7.629395e-06)" style="clip-path:url(#SVGID_00000179638013459488794430000006899224421912184215_);">
								
									<image style="overflow:visible;" width="1160" height="819" xlink:href="FD33ABB936DDD1CB.png"  transform="matrix(5.728108e-02 0 0 5.728108e-02 228.6636 127.9632)">
								</image>
							</g>
						</g>
					</g>
				</g>
				<polygon style="clip-path:url(#SVGID_00000145765486903654222820000011059477917644100005_);fill:#FFFFFF;" points="240.8,148 
					241.8,161.5 241.9,161.5 243.1,148 247.2,148 248.3,161.6 248.3,161.6 249.5,148 253.1,148 250.5,165.5 246.1,165.5 
					245.1,152.8 245.1,152.8 243.7,165.5 239.3,165.5 236.8,148 				"/>
				<path style="clip-path:url(#SVGID_00000145765486903654222820000011059477917644100005_);fill:#FFFFFF;" d="M259.7,154.7v-3.2
					c0-0.4-0.2-0.9-0.7-0.9c-0.5,0-0.7,0.5-0.7,0.9v3.2H259.7z M254.4,151.7c0-2.6,2.1-4,4.6-4c2.5,0,4.6,1.3,4.6,4v5.6h-5.3v4.6
					c0,0.4,0.2,0.9,0.7,0.9c0.5,0,0.7-0.5,0.7-0.9v-3.4h3.9v3.2c0,2.6-2.1,4-4.6,4c-2.5,0-4.6-1.3-4.6-4V151.7z"/>
				<polygon style="clip-path:url(#SVGID_00000145765486903654222820000011059477917644100005_);fill:#FFFFFF;" points="
					265.6,165.5 265.6,136.1 269.5,136.1 269.5,155.9 269.6,155.9 271.1,148 275.2,148 273.3,155.5 275.1,165.5 271.1,165.5 
					269.6,156.3 269.5,156.3 269.5,165.5 				"/>
				<path style="clip-path:url(#SVGID_00000145765486903654222820000011059477917644100005_);fill:#FFFFFF;" d="M280.5,161.9
					c0,0.4,0.2,0.9,0.7,0.9c0.5,0,0.7-0.5,0.7-0.9v-5.1l-0.7,0.5c-0.6,0.5-0.7,0.6-0.7,1.4V161.9z M276.6,151.7c0-2.6,2.1-4,4.6-4
					c2.5,0,4.6,1.3,4.6,4V162c0,1.2,0.2,2.4,0.3,3.6h-4l-0.2-1.8h-0.1c-0.5,1.4-1.5,2-2.6,2c-2,0-2.6-1.2-2.6-3.2v-3.8
					c0-4.4,5.3-2.7,5.3-6.5v-0.7c0-0.4-0.2-0.9-0.7-0.9c-0.5,0-0.7,0.5-0.7,0.9v2.5h-3.9V151.7z"/>
				<g style="opacity:0.72;clip-path:url(#SVGID_00000145765486903654222820000011059477917644100005_);">
					<g>
						<defs>
							<rect id="SVGID_00000109028357290835779650000001176591569619670461_" x="228.3" y="120.6" width="67.9" height="67.9"/>
						</defs>
						<clipPath id="SVGID_00000110454425942671907670000001469916461242022549_">
							<use xlink:href="#SVGID_00000109028357290835779650000001176591569619670461_"  style="overflow:visible;"/>
						</clipPath>
						<g style="clip-path:url(#SVGID_00000110454425942671907670000001469916461242022549_);">
							<defs>
								<path id="SVGID_00000180342954728742085510000012411916045446587013_" d="M296.3,154.6c0,18.8-15.2,34-34,34
									c-18.8,0-34-15.2-34-34c0-18.8,15.2-34,34-34C281.1,120.6,296.3,135.8,296.3,154.6"/>
							</defs>
							<clipPath id="SVGID_00000152224181735609595980000011937382205216902276_">
								<use xlink:href="#SVGID_00000180342954728742085510000012411916045446587013_"  style="overflow:visible;"/>
							</clipPath>
							
								<radialGradient id="SVGID_00000028310859483743567420000014378654831652648857_" cx="-0.7707" cy="292.7884" r="0.2387" gradientTransform="matrix(181.3536 0 0 -181.3536 399.3003 53240.1602)" gradientUnits="userSpaceOnUse">
								<stop  offset="0" style="stop-color:#FFFFFF"/>
								<stop  offset="0.4725" style="stop-color:#FFFFFF"/>
								<stop  offset="1" style="stop-color:#1A171B"/>
							</radialGradient>
							
								<rect x="228.3" y="120.6" style="clip-path:url(#SVGID_00000152224181735609595980000011937382205216902276_);fill:url(#SVGID_00000028310859483743567420000014378654831652648857_);" width="67.9" height="67.9"/>
						</g>
					</g>
				</g>
			</g>
		</g>
	</g>
</g>
</svg>
