<?xml version="1.0" encoding="utf-8"?>
<!-- Generator: Adobe Illustrator 27.3.0, SVG Export Plug-In . SVG Version: 6.00 Build 0)  -->
<svg version="1.1" id="Ebene_1" xmlns="http://www.w3.org/2000/svg" xmlns:xlink="http://www.w3.org/1999/xlink" x="0px" y="0px"
	 viewBox="0 0 531 234" style="enable-background:new 0 0 531 234;" xml:space="preserve">
<style type="text/css">
	.st0{fill:none;stroke:#C4C4C4;stroke-width:1.6;stroke-linecap:square;}
	.st1{fill-rule:evenodd;clip-rule:evenodd;fill:#E3E3E3;stroke:#C4C4C4;stroke-width:1.6;}
	.st2{fill-rule:evenodd;clip-rule:evenodd;fill:#F3F3F3;}
	.st3{fill-rule:evenodd;clip-rule:evenodd;fill:#F6F6F6;stroke:#C4C4C4;stroke-width:1.6;}
	.st4{fill-rule:evenodd;clip-rule:evenodd;fill:#FFFFFF;}
	.st5{fill-rule:evenodd;clip-rule:evenodd;fill:#D8D8D8;}
	.st6{fill-rule:evenodd;clip-rule:evenodd;fill:#FFFFFF;stroke:#C4C4C4;stroke-width:1.6;}
	.st7{fill-rule:evenodd;clip-rule:evenodd;fill:#E0E0E0;}
	.st8{fill-rule:evenodd;clip-rule:evenodd;fill:#C4C4C4;}
	.st9{fill:#C1C1C1;}
	.st10{fill-rule:evenodd;clip-rule:evenodd;fill:#ECECEC;stroke:#C4C4C4;stroke-width:1.6;}
	.st11{fill-rule:evenodd;clip-rule:evenodd;fill:#D8D8D8;stroke:#C4C4C4;stroke-width:1.6;}
	.st12{fill-rule:evenodd;clip-rule:evenodd;fill:#F3F3F3;stroke:#C4C4C4;stroke-width:1.6;}
	.st13{fill-rule:evenodd;clip-rule:evenodd;fill:#DDDCDC;stroke:#C4C4C4;stroke-width:1.6;}
	.st14{opacity:0.25;}
	.st15{clip-path:url(#SVGID_00000079481525825129305420000007198125889377852087_);}
	.st16{clip-path:url(#SVGID_00000154383547003991758280000000140659671261601970_);}
	.st17{clip-path:url(#SVGID_00000021798652447947510130000018330585776195117718_);fill:#CFD1D2;}
	.st18{clip-path:url(#SVGID_00000021798652447947510130000018330585776195117718_);fill:#FFFFFF;}
	.st19{clip-path:url(#SVGID_00000021798652447947510130000018330585776195117718_);fill:#9C9E9F;}
	.st20{clip-path:url(#SVGID_00000021798652447947510130000018330585776195117718_);}
	.st21{clip-path:url(#SVGID_00000143586740353602329160000012221401738424313249_);}
	.st22{opacity:0.72;clip-path:url(#SVGID_00000021798652447947510130000018330585776195117718_);}
	.st23{clip-path:url(#SVGID_00000007415075292130718260000011757258001132887937_);}
	
		.st24{clip-path:url(#SVGID_00000007393567000971698130000017207915234348408975_);fill:url(#SVGID_00000161593770433029353820000015788315791222803347_);}
</style>
<g id="Templates">
	<g id="_x34_04-Page" transform="translate(-694 -276)">
		<g id="_x34_04-illustration" transform="translate(695 278)">
			<line id="desk" class="st0" x1="0.6" y1="230.8" x2="529" y2="230.8"/>
			<g id="monitor" transform="translate(109.6)">
				<g id="stand" transform="translate(107.2 193.6)">
					<path id="shadow" class="st1" d="M10.2-0.8h77.3l11.2,37.6H-1.1L10.2-0.8z"/>
					<path id="light" class="st2" d="M25.4,5.6h46c4.7,0,8.7,3.1,10,7.6l2.9,10.2c1.6,5.5-1.7,11.3-7.2,12.8
						c-0.9,0.3-1.9,0.4-2.8,0.4H22.5c-5.7,0-10.4-4.7-10.4-10.4c0-1,0.1-1.9,0.4-2.8l2.9-10.2C16.7,8.7,20.7,5.6,25.4,5.6z"/>
				</g>
				<g id="body">
					<path id="shadow_00000127007039791882295020000005777604402641154972_" class="st3" d="M4.8-0.8h301.6c3.1,0,5.6,2.5,5.6,5.6
						v184.8c0,3.1-2.5,5.6-5.6,5.6H4.8c-3.1,0-5.6-2.5-5.6-5.6V4.8C-0.8,1.7,1.7-0.8,4.8-0.8z"/>
					<path id="light_00000019646995546457029260000009398119755195712149_" class="st4" d="M6.4,2.4h298.4c2.2,0,4,1.8,4,4v180
						c0,2.2-1.8,4-4,4H6.4c-2.2,0-4-1.8-4-4V6.4C2.4,4.2,4.2,2.4,6.4,2.4z"/>
				</g>
				<g id="logo" transform="translate(150.4 177.6)">
					<circle id="shadow_00000057120177131612791090000003509226083626903743_" class="st5" cx="5.6" cy="5.6" r="5.6"/>
					<circle id="light_00000164481784634228168450000003447800924157107614_" class="st4" cx="5.2" cy="4.4" r="5.2"/>
				</g>
				<g id="screen" transform="translate(9.4 10.4)">
					<path id="screen-BG" class="st6" d="M2.6-0.8h288c1.3,0,2.4,1.1,2.4,2.4V160c0,1.3-1.1,2.4-2.4,2.4H2.6c-1.3,0-2.4-1.1-2.4-2.4
						V1.6C0.2,0.3,1.3-0.8,2.6-0.8z"/>
					<g id="browser-bar" transform="translate(.6529)">
						<path id="BG" class="st7" d="M2.7,0h286.4c1.3,0,2.4,1.1,2.4,2.4v14.3H0.3V2.4C0.3,1.1,1.4,0,2.7,0z"/>
						<path id="plugin" class="st8" d="M276.4,4.5h5.7c0.9,0,1.6,0.7,1.6,1.6v4.6c0,0.9-0.7,1.6-1.6,1.6h-5.7
							c-0.9,0-1.6-0.7-1.6-1.6V6.1C274.8,5.2,275.5,4.5,276.4,4.5z"/>
						<path id="search-bar" class="st4" d="M62.2,4.5h172c0.9,0,1.6,0.7,1.6,1.6v4.6c0,0.9-0.7,1.6-1.6,1.6h-172
							c-0.9,0-1.6-0.7-1.6-1.6V6.1C60.6,5.2,61.3,4.5,62.2,4.5z"/>
						<g id="options" transform="translate(7.0414 5.5724)">
							<ellipse id="Oval-Copy-2" class="st8" cx="18.4" cy="2.8" rx="2.8" ry="2.8"/>
							<ellipse id="Oval-Copy" class="st8" cx="10.6" cy="2.8" rx="2.8" ry="2.8"/>
							<ellipse id="Oval" class="st8" cx="2.8" cy="2.8" rx="2.8" ry="2.8"/>
						</g>
					</g>
				</g>
				<path id="_x34_04" class="st9" d="M130,107.3l-0.6-7.3l5.2-0.4l-0.6-7.1l-5.2,0.4l-2.3-27.3l-11,0.9l-15.1,28.9l0.6,6.9l20-1.7
					l0.6,7.3L130,107.3z M120.5,93.6l-11.3,1v-0.3l9.5-18.3h0.3L120.5,93.6z M157.5,105.9c5.2-0.4,9.2-2.7,11.9-6.8
					c2.7-4.1,3.7-9.5,3.1-16.4c-0.4-4.6-1.4-8.4-3-11.5s-3.8-5.4-6.4-6.8c-2.7-1.5-5.7-2.1-9.2-1.8c-5.2,0.4-9.2,2.7-11.9,6.7
					s-3.7,9.4-3.2,16.3c0.4,4.6,1.4,8.4,3,11.5s3.8,5.4,6.4,6.9C150.9,105.5,154,106.1,157.5,105.9L157.5,105.9z M156.9,98.5
					c-2.4,0.2-4.4-0.8-6-3.1c-1.6-2.3-2.7-5.8-3.1-10.6c-0.4-4.7,0-8.4,1.2-10.9s3-3.9,5.4-4.1s4.4,0.8,6,3.1
					c1.6,2.3,2.6,5.8,3.1,10.5c0.4,4.8,0,8.5-1.2,11C161.1,97,159.3,98.3,156.9,98.5z M208.4,100.6l-0.6-7.3l5.2-0.4l-0.6-7.1
					l-5.2,0.4l-2.3-27.3l-11,0.9l-15.1,28.9l0.6,6.9l20-1.7l0.6,7.3L208.4,100.6z M198.9,86.9l-11.3,1v-0.3l9.5-18.3h0.3L198.9,86.9
					z"/>
			</g>
			<g id="keyboard" transform="translate(156 219.2)">
				<g id="keys" transform="translate(4.8)">
					<path id="key7" class="st6" d="M165.6,4.2h12V1.6c0-0.4-0.4-0.8-0.8-0.8l0,0h-10.4c-0.4,0-0.8,0.4-0.8,0.8l0,0V4.2z"/>
					<path id="key6" class="st6" d="M148,4.2h12V1.6c0-0.4-0.4-0.8-0.8-0.8l0,0h-10.4c-0.4,0-0.8,0.4-0.8,0.8l0,0V4.2z"/>
					<path id="key5" class="st6" d="M130.4,4.2h12V1.6c0-0.4-0.4-0.8-0.8-0.8l0,0h-10.4c-0.4,0-0.8,0.4-0.8,0.8l0,0V4.2z"/>
					<path id="space" class="st6" d="M53.6,4.2H116V1.6c0-0.4-0.4-0.8-0.8-0.8l0,0H54.4c-0.4,0-0.8,0.4-0.8,0.8
						C53.6,1.6,53.6,4.2,53.6,4.2z"/>
					<path id="key3" class="st6" d="M36,4.2h12V1.6c0-0.4-0.4-0.8-0.8-0.8H36.8c-0.4,0-0.8,0.4-0.8,0.8V4.2z"/>
					<path id="key2" class="st6" d="M18.4,4.2h12V1.6c0-0.4-0.4-0.8-0.8-0.8H19.2c-0.4,0-0.8,0.4-0.8,0.8
						C18.4,1.6,18.4,4.2,18.4,4.2z"/>
					<path id="key1" class="st6" d="M0.8,4.2h12V1.6c0-0.4-0.4-0.8-0.8-0.8l0,0H1.6c-0.4,0-0.8,0.4-0.8,0.8V4.2z"/>
				</g>
				<g id="board" transform="translate(0 4.8)">
					<path id="shadow_00000128448653772977007290000013348252327724435390_" class="st10" d="M1.6-0.8h184.8c1.3,0,2.4,1.1,2.4,2.4
						v4.8H-0.8V1.6C-0.8,0.3,0.3-0.8,1.6-0.8z"/>
					<path id="light_00000069387540989043782080000015460468322674971562_" class="st4" d="M1.6,0h184.8c0.9,0,1.6,0.7,1.6,1.6V3H0
						V1.6C0,0.7,0.7,0,1.6,0z"/>
				</g>
			</g>
			<g id="plant" transform="translate(437.6 100.8)">
				<g id="leaf">
					<g id="leaf-middle">
						<path id="shadow_00000001627897472926029390000010250980273715448454_" class="st11" d="M25.3,23.8c4.7-6.7,8.4-14.7,11.1-24
							l0.4-1.3l1,1C55.1,17.8,56.1,46.2,40,65.7L29.9,78l-0.6-0.7C15.5,62.7,13.8,40.4,25.3,23.8z"/>
						<path id="Combined-Shape" class="st2" d="M32.2,55.6l-9.3,11.3c-6.8-13.4-5.9-29.8,3-42.6c4.7-6.8,8.4-14.8,11.2-24.2
							C46.9,17.5,45.4,39.6,32.2,55.6z"/>
					</g>
					<g id="leaf-left" transform="translate(.8 47.2)">
						<path id="shadow_00000171700736999756476980000011899757845771467414_" class="st11" d="M8.5-0.7c3.7,2.6,8.1,4.6,13,6
							c20.1,5.6,32.6,25.5,28.9,46l-0.1,0.8l-5.7-0.8C20.4,48,3.6,25.7,6.9,1.6C7,1.1,7.1,0.5,7.2-0.1l0.2-1.2L8.5-0.7z"/>
						<path id="Combined-Shape_00000159428854855755211190000007669104493629308852_" class="st2" d="M9.7,1.1L9.7,1.1
							c1,0.6,1.9,1.1,2.9,1.6c13.2,8.3,20.6,23.9,18,39.9l-0.1,0.6l-5-0.7l-0.6-0.1C12.5,33.3,5.5,18,7.7,1.8C7.8,1.4,7.9,1,7.9,0.6
							L8,0.3C8.5,0.5,9.1,0.8,9.7,1.1z"/>
					</g>
					<g id="leaf-right" transform="translate(19.2 37.6)">
						<path id="shadow_00000152979945845791330000000001460092907095146919_" class="st11" d="M25.8,14.3c3.9-3.4,7.4-8.3,10.4-14.7
							l0.7-1.5l0.7,1.5C48,20.1,39.8,45.1,19.4,55.5L18,56.3l-0.4-0.7C10.6,41.6,13.9,24.6,25.8,14.3z"/>
						<path id="Combined-Shape_00000014609493803317650750000016960271292026397079_" class="st2" d="M15.8,46.9L15.5,47
							C13,35.4,16.9,23,26.3,14.9c4-3.4,7.4-8.3,10.5-14.7C41.5,18.3,33.2,37.9,15.8,46.9z"/>
					</g>
				</g>
				<g id="pot" transform="translate(5.6 78.4)">
					<g id="element2" transform="translate(4 .8)">
						<path id="shadow_00000088095556390439806660000009205613679950727302_" class="st10" d="M2.7-0.8h45.7c1.8,0,3.2,1.4,3.2,3.2
							c0,0.1,0,0.3,0,0.4l-6.2,48H5.6l-6.1-48c-0.2-1.8,1-3.4,2.8-3.6C2.5-0.8,2.6-0.8,2.7-0.8z"/>
						<path id="light_00000180365530515208243310000005497744677627145633_" class="st4" d="M2,12h38.6c1.3,0,2.4,1.1,2.4,2.4
							c0,0.1,0,0.2,0,0.3L39,50H6.4L1.6,12.5C1.5,12.2,1.7,12,2,12C1.9,12,1.9,12,2,12z"/>
					</g>
					<g id="element1">
						<path id="shadow_00000086670014689461780400000011671622239022655664_" class="st10" d="M5.1-0.8h50.7c1.9,0,3.9,1.2,4.7,2.9
							c0.3,0.7,0.4,1.5,0,2.1l-2.2,4c-0.5,0.9-1.6,1.4-2.9,1.4H5.5c-1.3,0-2.4-0.5-3-1.4l-2.2-4c-0.7-1.5,0.5-3.5,2.5-4.4
							C3.6-0.6,4.4-0.8,5.1-0.8z"/>
						<path id="light_00000091016497631879055990000010015946062971733920_" class="st4" d="M4.9,0h43.7c1.6,0,3.4,1.1,4,2.4
							c0.2,0.5,0.3,1,0.1,1.4l-2.2,4c-0.4,0.6-1.2,1-2.2,1h-43c-1,0-1.9-0.4-2.2-1l-2.2-4C0.4,2.8,1.4,1.3,3,0.5
							C3.7,0.2,4.3,0,4.9,0z"/>
					</g>
				</g>
			</g>
			<g id="mouse" transform="translate(378.4 215.2)">
				<path id="shadow_00000041287384769402825630000001010148578427578546_" class="st12" d="M14.4-0.8h6.4C29.2-0.8,36,6,36,14.4
					v0.8H-0.8v-0.8C-0.8,6,6-0.8,14.4-0.8z"/>
				<path id="Combined-Shape_00000015350774671496349430000007849687186976727225_" class="st4" d="M20.8,0c4.1,0,7.8,1.7,10.4,4.4
					v0.4c0,3.1-2.5,5.6-5.6,5.6h-25C2.3,4.4,7.8,0,14.4,0H20.8z"/>
			</g>
			<g id="books" transform="translate(17.6 198.4)">
				<g id="book-large" transform="translate(8 18.4)">
					<path id="shadow_00000038385363182398258220000007426009166948999576_" class="st10" d="M0.8-0.8h93.6c0.9,0,1.6,0.7,1.6,1.6
						V12c0,0.9-0.7,1.6-1.6,1.6H0.8c-0.9,0-1.6-0.7-1.6-1.6V0.8C-0.8-0.1-0.1-0.8,0.8-0.8z"/>
					<path id="light_00000054268036893067790430000000606709035486698905_" class="st4" d="M4.4,0h89.2c0.9,0,1.6,0.7,1.6,1.6V10H6
						c-0.9,0-1.6-0.7-1.6-1.6V0z"/>
					<g id="bond-left" transform="translate(17.6)">
						
							<rect id="shadow_00000183225000079478864760000017221295030821295807_" x="-0.8" y="-0.8" class="st13" width="8.8" height="14.4"/>
						<path id="light_00000160187167506082956210000003481635436820742077_" class="st2" d="M2.4,0h4.8v10H3.4c-0.6,0-1-0.4-1-1V0z"
							/>
					</g>
					<g id="bond-right" transform="translate(69.6)">
						
							<rect id="shadow_00000030477955193698262720000005712518171338609305_" x="-0.8" y="-0.8" class="st13" width="8.8" height="14.4"/>
						<path id="light_00000050664978108336046770000009394537028116580541_" class="st2" d="M2.4,0h4.8v10H3.4c-0.6,0-1-0.4-1-1V0z"
							/>
					</g>
				</g>
				<g id="book-medium" transform="translate(0 6.2)">
					<path id="shadow_00000016034449763451702570000018188735465995379850_" class="st10" d="M0.8,0.2h93.6c0.9,0,1.6,0.7,1.6,1.6v8
						c0,0.9-0.7,1.6-1.6,1.6H0.8c-0.9,0-1.6-0.7-1.6-1.6v-8C-0.8,0.9-0.1,0.2,0.8,0.2z"/>
					<path id="light_00000128448917903356956900000017044627891169863814_" class="st4" d="M4,1h89.6c0.9,0,1.6,0.7,1.6,1.6v5.6H5.6
						C4.7,8.2,4,7.5,4,6.6V1z"/>
					<g id="bond-right_00000125569852397143673320000013107013797823827132_" transform="translate(17.6 .2)">
						
							<rect id="shadow_00000080174972580882719900000001253170636277229202_" x="-0.8" y="-0.6" class="st13" width="8.8" height="11.8"/>
						<path id="light_00000165231922774597338830000013408169817071568055_" class="st2" d="M2.4,0.8h4.8v7.3H3.4c-0.6,0-1-0.4-1-1
							V0.8z"/>
					</g>
					<g id="bond-left_00000148654733724344267810000012848792642150258364_" transform="translate(69.6 .2)">
						
							<rect id="shadow_00000151533487513590977740000008289114919462847159_" x="-0.8" y="-0.6" class="st13" width="8.8" height="11.8"/>
						<path id="light_00000091694936297327154390000001901877883745182131_" class="st2" d="M2.4,0.8h4.8v7.3H3.4c-0.6,0-1-0.4-1-1
							V0.8z"/>
					</g>
				</g>
				<g id="magazine" transform="translate(15.2)">
					<path id="shadow_00000046309940404015517150000008587893359079272341_" class="st10" d="M0.8-0.8h68c0.9,0,1.6,0.7,1.6,1.6v4
						c0,0.9-0.7,1.6-1.6,1.6h-68c-0.9,0-1.6-0.7-1.6-1.6v-4C-0.8-0.1-0.1-0.8,0.8-0.8z"/>
					<path id="light_00000130628106121019922210000005407763949978556559_" class="st4" d="M3.2,0H68c0.9,0,1.6,0.7,1.6,1.6V4H4.8
						C3.9,4,3.2,3.3,3.2,2.4V0z"/>
				</g>
			</g>
			<g id="cup-of-coffee" transform="translate(39.8 154.4)">
				<g id="cup" transform="translate(.6)">
					<path id="Combined-Shape_00000114070007760798304510000002878504753518684327_" class="st10" d="M8.8,10.4c0.4,0,0.8,0,1.2,0.1
						v5.7C9.6,16.1,9.2,16,8.8,16c-2.4,0-4.4,2.7-4.4,6s2,6,4.4,6c0.4,0,0.8-0.1,1.2-0.2v5.7c-0.4,0.1-0.8,0.1-1.2,0.1
						c-4.6,0-8.4-5.2-8.4-11.6S4.2,10.4,8.8,10.4z"/>
					<path id="shadow_00000004517983587869577280000001363487798532059583_" class="st10" d="M11.6-0.8h33.6c1.3,0,2.4,1.1,2.4,2.4
						V36c0,4-3.2,7.2-7.2,7.2h-24c-4,0-7.2-3.2-7.2-7.2V1.6C9.2,0.3,10.3-0.8,11.6-0.8z"/>
					<path id="light_00000169518329632708059090000015118638820506368144_" class="st4" d="M17.2,0h28.2C46.3,0,47,0.7,47,1.6V36
						c0,3.5-2.9,6.4-6.4,6.4h-17c-3.5,0-6.4-2.9-6.4-6.4C17.2,36,17.2,0,17.2,0z"/>
				</g>
			</g>
		</g>
	</g>
</g>
<g class="st14">
	<g>
		<defs>
			
				<rect id="SVGID_1_" x="248" y="70.1" transform="matrix(0.7071 -0.7071 0.7071 0.7071 -8.2209 245.4716)" width="88.5" height="125.2"/>
		</defs>
		<clipPath id="SVGID_00000140736396527421606760000014688340343309720746_">
			<use xlink:href="#SVGID_1_"  style="overflow:visible;"/>
		</clipPath>
		<g style="clip-path:url(#SVGID_00000140736396527421606760000014688340343309720746_);">
			<defs>
				
					<rect id="SVGID_00000040555420256038301810000001959947616016812962_" x="248" y="70.1" transform="matrix(0.7071 -0.7071 0.7071 0.7071 -8.2209 245.4716)" width="88.5" height="125.2"/>
			</defs>
			<clipPath id="SVGID_00000081610619137945666020000011153605456779026855_">
				<use xlink:href="#SVGID_00000040555420256038301810000001959947616016812962_"  style="overflow:visible;"/>
			</clipPath>
			<g style="clip-path:url(#SVGID_00000081610619137945666020000011153605456779026855_);">
				<defs>
					
						<rect id="SVGID_00000167370296652446969430000004104672695864674176_" x="248" y="70.1" transform="matrix(0.7071 -0.7071 0.7071 0.7071 -8.2209 245.4716)" width="88.5" height="125.2"/>
				</defs>
				<clipPath id="SVGID_00000158743005457763344540000017222475151246321846_">
					<use xlink:href="#SVGID_00000167370296652446969430000004104672695864674176_"  style="overflow:visible;"/>
				</clipPath>
				<path style="clip-path:url(#SVGID_00000158743005457763344540000017222475151246321846_);fill:#CFD1D2;" d="M308.3,144.3
					c-8.3,8.3-21.7,8.3-29.9,0c-8.3-8.3-8.3-21.7,0-29.9c8.3-8.3,21.7-8.3,29.9,0C316.6,122.7,316.6,136.1,308.3,144.3"/>
				<path style="clip-path:url(#SVGID_00000158743005457763344540000017222475151246321846_);fill:#FFFFFF;" d="M306.9,142.9
					c-7.4,7.4-19.5,7.4-27,0c-7.4-7.4-7.4-19.5,0-27c7.4-7.4,19.5-7.4,27,0C314.3,123.4,314.3,135.4,306.9,142.9"/>
				<path style="clip-path:url(#SVGID_00000158743005457763344540000017222475151246321846_);fill:#9C9E9F;" d="M280.3,116.3
					c-7.2,7.2-7.2,19,0,26.2c7.2,7.2,19,7.2,26.2,0c7.2-7.2,7.2-19,0-26.2C299.2,109,287.5,109,280.3,116.3"/>
				<g style="clip-path:url(#SVGID_00000158743005457763344540000017222475151246321846_);">
					<g>
						<defs>
							
								<rect id="SVGID_00000095303450617817600850000006581777862515381662_" x="280" y="107.1" transform="matrix(0.7071 -0.7071 0.7071 0.7071 -4.0929 245.7349)" width="29.2" height="41.4"/>
						</defs>
						<clipPath id="SVGID_00000043434248266786567760000000744301474192246403_">
							<use xlink:href="#SVGID_00000095303450617817600850000006581777862515381662_"  style="overflow:visible;"/>
						</clipPath>
						<g style="clip-path:url(#SVGID_00000043434248266786567760000000744301474192246403_);">
							<defs>
								
									<rect id="SVGID_00000097462090668028493530000014108205102800458901_" x="280" y="107.1" transform="matrix(0.7071 -0.7071 0.7071 0.7071 -4.0929 245.7349)" width="29.2" height="41.4"/>
							</defs>
							<clipPath id="SVGID_00000126319220315879755990000002451011062037553046_">
								<use xlink:href="#SVGID_00000097462090668028493530000014108205102800458901_"  style="overflow:visible;"/>
							</clipPath>
							
								<g transform="matrix(1 0 0 1 0 7.629395e-06)" style="clip-path:url(#SVGID_00000126319220315879755990000002451011062037553046_);">
								
									<image style="overflow:visible;" width="1160" height="819" xlink:href="2B648833F646F4D3.png"  transform="matrix(2.522992e-02 2.522992e-02 -2.522992e-02 2.522992e-02 290.2802 102.843)">
								</image>
							</g>
						</g>
					</g>
				</g>
				<polygon style="clip-path:url(#SVGID_00000158743005457763344540000017222475151246321846_);fill:#FFFFFF;" points="286.8,117 
					281.3,123.4 281.3,123.5 287.8,118 289.6,119.8 284.1,126.3 284.1,126.3 290.6,120.8 292.2,122.4 283.4,129 281.4,127.1 
					286.6,121 286.6,121 280.4,126 278.4,124.1 285.1,115.3 				"/>
				<path style="clip-path:url(#SVGID_00000158743005457763344540000017222475151246321846_);fill:#FFFFFF;" d="M292.2,128.3
					l1.4-1.4c0.2-0.2,0.3-0.5,0.1-0.7c-0.2-0.2-0.5-0.1-0.7,0.1l-1.4,1.4L292.2,128.3z M291.2,124.7c1.2-1.2,2.7-0.8,3.8,0.3
					c1.1,1.1,1.4,2.6,0.3,3.8l-2.5,2.5l-2.3-2.3l-2,2c-0.2,0.2-0.3,0.5-0.1,0.7c0.2,0.2,0.5,0.1,0.7-0.1l1.5-1.5l1.7,1.7l-1.4,1.4
					c-1.2,1.2-2.7,0.8-3.8-0.3c-1.1-1.1-1.4-2.6-0.3-3.8L291.2,124.7z"/>
				<polygon style="clip-path:url(#SVGID_00000158743005457763344540000017222475151246321846_);fill:#FFFFFF;" points="290,135.7 
					303,122.7 304.7,124.4 296,133.1 296,133.2 300.2,130.4 302,132.2 297.8,134.6 294.2,139.9 292.4,138.1 295.8,133.3 
					295.8,133.3 291.7,137.4 				"/>
				<path style="clip-path:url(#SVGID_00000158743005457763344540000017222475151246321846_);fill:#FFFFFF;" d="M298.1,140.6
					c-0.2,0.2-0.3,0.5-0.1,0.7c0.2,0.2,0.5,0.1,0.7-0.1l2.2-2.2l-0.5-0.1c-0.5,0-0.6,0-0.9,0.3L298.1,140.6z M300.9,134.4
					c1.2-1.2,2.7-0.8,3.8,0.3c1.1,1.1,1.4,2.6,0.3,3.8l-4.5,4.5c-0.5,0.5-1,1.1-1.4,1.7l-1.7-1.7l0.7-0.9l0,0
					c-0.9,0.4-1.5,0.2-2-0.3c-0.9-0.9-0.6-1.7,0.2-2.5l1.7-1.7c1.9-1.9,3.5,1.1,5.2-0.6l0.3-0.3c0.2-0.2,0.3-0.5,0.1-0.7
					c-0.2-0.2-0.5-0.1-0.7,0.1l-1.1,1.1l-1.7-1.7L300.9,134.4z"/>
				<g style="opacity:0.72;clip-path:url(#SVGID_00000158743005457763344540000017222475151246321846_);">
					<g>
						<defs>
							
								<rect id="SVGID_00000179621461144428930350000006132984690987873947_" x="272.2" y="108.2" transform="matrix(0.7071 -0.7071 0.7071 0.7071 -5.5613 245.3472)" width="42.3" height="42.3"/>
						</defs>
						<clipPath id="SVGID_00000023993459077526537630000011991410501038371251_">
							<use xlink:href="#SVGID_00000179621461144428930350000006132984690987873947_"  style="overflow:visible;"/>
						</clipPath>
						<g style="clip-path:url(#SVGID_00000023993459077526537630000011991410501038371251_);">
							<defs>
								<path id="SVGID_00000040536583263681200480000009168361669618498193_" d="M308.3,144.3c-8.3,8.3-21.7,8.3-29.9,0
									c-8.3-8.3-8.3-21.7,0-29.9c8.3-8.3,21.7-8.3,29.9,0C316.6,122.7,316.6,136.1,308.3,144.3"/>
							</defs>
							<clipPath id="SVGID_00000098187757015735501140000005926705990692680118_">
								<use xlink:href="#SVGID_00000040536583263681200480000009168361669618498193_"  style="overflow:visible;"/>
							</clipPath>
							
								<radialGradient id="SVGID_00000146461002108479036100000001782603072212055694_" cx="-9.094947e-13" cy="234" r="1" gradientTransform="matrix(19.0647 19.0647 19.0647 -19.0647 -4163.4272 4583.7358)" gradientUnits="userSpaceOnUse">
								<stop  offset="0" style="stop-color:#FFFFFF"/>
								<stop  offset="0.4725" style="stop-color:#FFFFFF"/>
								<stop  offset="1" style="stop-color:#1A171B"/>
							</radialGradient>
							
								<polygon style="clip-path:url(#SVGID_00000098187757015735501140000005926705990692680118_);fill:url(#SVGID_00000146461002108479036100000001782603072212055694_);" points="
								293.4,99.5 323.3,129.4 293.4,159.3 263.5,129.4 							"/>
						</g>
					</g>
				</g>
			</g>
		</g>
	</g>
</g>
</svg>
