<?xml version="1.0" encoding="utf-8"?>
<!-- Generator: Adobe Illustrator 27.3.0, SVG Export Plug-In . SVG Version: 6.00 Build 0)  -->
<svg version="1.1" id="Ebene_1" xmlns="http://www.w3.org/2000/svg" xmlns:xlink="http://www.w3.org/1999/xlink" x="0px" y="0px"
	 viewBox="0 0 34 24" style="enable-background:new 0 0 34 24;" xml:space="preserve">
<style type="text/css">
	.st0{fill:#FFFFFF;stroke:#D1D9E0;}
	.st1{fill-rule:evenodd;clip-rule:evenodd;fill:#007FC3;}
	.st2{fill-rule:evenodd;clip-rule:evenodd;fill:#FF0000;}
	.st3{fill-rule:evenodd;clip-rule:evenodd;fill:#292526;}
</style>
<path class="st0" d="M4,0.5h26c1.933,0,3.5,1.567,3.5,3.5v16c0,1.933-1.567,3.5-3.5,3.5H4c-1.933,0-3.5-1.567-3.5-3.5V4
	C0.5,2.067,2.067,0.5,4,0.5z"/>
<g id="g2349" transform="matrix(53.564733,0,0,-53.564733,264.88072,399.53834)">
	<path id="path2351" class="st1" d="M-4.6981,7.3044V7.2642h0.0224v0.0523H-4.686C-4.6926,7.3165-4.6981,7.3111-4.6981,7.3044z
		 M-4.6981,7.1658c0-0.0071,0.0056-0.0128,0.0123-0.0128h0.0101v0.0409h0.0699V7.0974h-0.1308
		c-0.0173,0-0.0299,0.0141-0.0299,0.0313v0.212c0,0.0174,0.0126,0.0314,0.0299,0.0314h0.1308v-0.162h-0.0923V7.1658"/>
</g>
<g id="g2357" transform="matrix(53.564733,0,0,-53.564733,607.58788,738.54954)">
	<path id="path2359" class="st2" d="M-10.8869,13.4264h-0.1283l-0.0015,0.0002l-0.0014,0.0002l-0.0015,0.0003l-0.0014,0.0004
		l-0.0013,0.0005l-0.0014,0.0005l-0.0013,0.0005c-0.0042,0.0019-0.0069,0.0038-0.0103,0.007
		c-0.0029,0.003-0.0052,0.0066-0.0067,0.0106l-0.0005,0.0013l-0.0004,0.0015l-0.0004,0.0014l-0.0004,0.0014l-0.0002,0.0015
		l-0.0002,0.0014l-0.0001,0.0016l-0.0001,0.0014V13.67c0.0002,0.0082,0.003,0.0156,0.0087,0.0215
		c0.0028,0.003,0.0063,0.0054,0.0101,0.007l0.0013,0.0006l0.0013,0.0005l0.0014,0.0004l0.0013,0.0004l0.0015,0.0003l0.0014,0.0002
		l0.0014,0.0002l0.0015,0.0001h0.1274v-0.1077h-0.0669v0.0523c-0.0103,0.0016-0.0215-0.0007-0.0221-0.0129v0.0047l-0.0001-0.0049
		l0.0001,0.0002v-0.1379l-0.0001,0.0002l0.0001-0.0012v0.001c0.0007-0.0122,0.0118-0.0146,0.0223-0.0128v0.056l0.0003,0.001h0.0665
		V13.4264"/>
</g>
<g id="g2365" transform="matrix(53.564733,0,0,-53.564733,398.52476,738.54954)">
	<path id="path2367" class="st3" d="M-7.1115,13.4264c-0.0078,0.0003-0.0152,0.0039-0.0206,0.0094
		c-0.0029,0.003-0.0052,0.0066-0.0067,0.0106l-0.0005,0.0013l-0.0004,0.0015l-0.0004,0.0014l-0.0004,0.0014l-0.0002,0.0015
		l-0.0002,0.0014l-0.0001,0.0016l-0.0001,0.0014v0.0651h0.0402v-0.0965H-7.1115z M-7.141,13.67
		c0.0008,0.0221,0.0189,0.0339,0.0402,0.0311v-0.162H-7.141V13.67"/>
</g>
</svg>
